G04*
G04 #@! TF.GenerationSoftware,Altium Limited,Altium Designer,25.1.2 (22)*
G04*
G04 Layer_Color=16711935*
%FSLAX44Y44*%
%MOMM*%
G71*
G04*
G04 #@! TF.SameCoordinates,E3DFA4F9-DD02-4CCE-B99A-3B4F6649CBA6*
G04*
G04*
G04 #@! TF.FilePolarity,Positive*
G04*
G01*
G75*
G36*
X25000Y140000D02*
X185000Y140000D01*
X185000Y140000D01*
Y140000D01*
X186477Y140000D01*
X189375Y139424D01*
X192105Y138293D01*
X194562Y136651D01*
X196651Y134562D01*
X198293Y132105D01*
X199424Y129375D01*
X200000Y126477D01*
X200000Y125000D01*
X200000Y15000D01*
X200000Y15000D01*
Y13522D01*
X199423Y10625D01*
X198293Y7895D01*
X196651Y5438D01*
X194562Y3349D01*
X192105Y1707D01*
X189375Y576D01*
X186477Y0D01*
X185000D01*
X25000Y0D01*
X23522D01*
X20624Y576D01*
X17895Y1707D01*
X15438Y3349D01*
X13349Y5438D01*
X11707Y7895D01*
X10576Y10625D01*
X10000Y13523D01*
X10000Y15000D01*
Y125000D01*
X10000Y126477D01*
X10576Y129375D01*
X11707Y132105D01*
X13348Y134562D01*
X15438Y136651D01*
X17895Y138293D01*
X20625Y139424D01*
X23523Y140000D01*
X25000Y140000D01*
D02*
G37*
G36*
X392917Y99616D02*
X394737Y98862D01*
X396375Y97767D01*
X397767Y96375D01*
X398862Y94737D01*
X399616Y92917D01*
X400000Y90985D01*
Y90000D01*
Y50000D01*
Y49015D01*
X399616Y47083D01*
X398862Y45263D01*
X397767Y43625D01*
X396375Y42232D01*
X394737Y41138D01*
X392917Y40384D01*
X390985Y40000D01*
X359015D01*
X357083Y40384D01*
X355263Y41138D01*
X353625Y42232D01*
X352233Y43625D01*
X351138Y45263D01*
X350384Y47083D01*
X350000Y49015D01*
Y50000D01*
Y90000D01*
Y90985D01*
X350384Y92917D01*
X351138Y94737D01*
X352233Y96375D01*
X353625Y97767D01*
X355263Y98862D01*
X357083Y99616D01*
X359015Y100000D01*
X390985D01*
X392917Y99616D01*
D02*
G37*
M02*
