G04*
G04 #@! TF.GenerationSoftware,Altium Limited,Altium Designer,25.1.2 (22)*
G04*
G04 Layer_Color=8421504*
%FSLAX44Y44*%
%MOMM*%
G71*
G04*
G04 #@! TF.SameCoordinates,E3DFA4F9-DD02-4CCE-B99A-3B4F6649CBA6*
G04*
G04*
G04 #@! TF.FilePolarity,Positive*
G04*
G01*
G75*
%ADD12R,0.3000X0.4500*%
%ADD13R,0.3500X0.8000*%
%ADD14R,0.8000X0.3500*%
%ADD15R,0.4000X0.7000*%
%ADD16R,0.7000X0.4000*%
%ADD17R,0.7000X0.9000*%
%ADD18R,1.0000X0.3000*%
%ADD19R,1.0000X0.6000*%
%ADD20R,0.6000X0.9000*%
D12*
X381500Y79750D02*
D03*
X375000D02*
D03*
X368500D02*
D03*
Y60250D02*
D03*
X375000D02*
D03*
X381500D02*
D03*
D13*
X159500Y56500D02*
D03*
X146500D02*
D03*
X140000D02*
D03*
X133500D02*
D03*
X127000D02*
D03*
X120500D02*
D03*
X120500Y113500D02*
D03*
X127000D02*
D03*
X133500D02*
D03*
X140000D02*
D03*
X146500D02*
D03*
X153000D02*
D03*
X159500D02*
D03*
X153000Y56500D02*
D03*
D14*
X111500Y65500D02*
D03*
Y72000D02*
D03*
Y78500D02*
D03*
Y85000D02*
D03*
Y91500D02*
D03*
Y98000D02*
D03*
Y104500D02*
D03*
X168500D02*
D03*
Y98000D02*
D03*
Y91500D02*
D03*
Y85000D02*
D03*
Y78500D02*
D03*
Y72000D02*
D03*
Y65500D02*
D03*
D15*
X377000Y50000D02*
D03*
X368000D02*
D03*
X85500Y115000D02*
D03*
X94500D02*
D03*
X162000Y42500D02*
D03*
X153000D02*
D03*
X115500Y127500D02*
D03*
X124500D02*
D03*
X144500Y127500D02*
D03*
X135500D02*
D03*
X142000Y42500D02*
D03*
X133000D02*
D03*
X94500Y77500D02*
D03*
X85500D02*
D03*
X94500Y65000D02*
D03*
X85500D02*
D03*
X94500Y102500D02*
D03*
X85500D02*
D03*
Y52500D02*
D03*
X94500D02*
D03*
X85500Y90000D02*
D03*
X94500D02*
D03*
D16*
X182500Y70500D02*
D03*
Y79500D02*
D03*
Y50500D02*
D03*
Y59500D02*
D03*
Y99500D02*
D03*
Y90500D02*
D03*
X85000Y39500D02*
D03*
Y30500D02*
D03*
Y10500D02*
D03*
Y19500D02*
D03*
D17*
X99000Y127500D02*
D03*
X86000D02*
D03*
D18*
X70000Y72500D02*
D03*
Y67500D02*
D03*
Y62500D02*
D03*
Y57500D02*
D03*
Y52500D02*
D03*
Y77500D02*
D03*
Y82500D02*
D03*
Y87500D02*
D03*
D19*
Y46000D02*
D03*
Y38000D02*
D03*
Y93500D02*
D03*
Y102000D02*
D03*
D20*
X100500Y36000D02*
D03*
X119500D02*
D03*
X110000Y14000D02*
D03*
M02*
