M48
;Layer_Color=9474304
;FILE_FORMAT=2:5
INCH,LZ
;TYPE=PLATED
T01F00S00C0.01181
;TYPE=NON_PLATED
T03F00S00C0.03900
%
T01
X0023622Y0014961
X0033465Y0009843
X0039567Y0017717
X003937Y0020669
X003937Y0025591
X003937Y0030512
Y0035433
Y0040354
X0042323Y0050197
X0051181
X0059055
X0062992Y0036024
X0069882Y0033465
X007874Y003248
Y0027559
X0074803Y0024606
X0065945Y0019685
X0057087Y0012795
X0062008Y0003937
X0047047Y0017717
X0047244Y0028346
X0052559Y0025591
X0055118Y0027559
X0074803Y0041339
X0077756
X0023622Y0040157
X0148622Y0035433
X0146653Y0031398
Y002372
X0151575Y0020669
X0156496Y0035433
T03
X0053976Y0008405
X0073976Y0004405
Y0012405
M30
