M48
;Layer_Color=9474304
;FILE_FORMAT=2:5
INCH,LZ
;TYPE=PLATED
T01F00S00C0.01181
;TYPE=NON_PLATED
T03F00S00C0.03900
%
T01
X0023622Y0014961
X0033465Y0009843
X0039567Y0017717
X003937Y0020669
X003937Y0025591
X003937Y0030512
Y0035433
Y0040354
X0042323Y0050197
X0051181
X0059055
X0062992Y0036024
X0074803Y003563
Y0031299
Y0027756
X007185Y0041339
X0065945Y0019685
X0056102Y0012795
X0061024Y0003937
X0047047Y0017717
X0047244Y0028346
X0052559Y0025591
X0055118Y0027559
X0023622Y0040157
X0147638Y0034449
X0152559Y0031398
Y002372
X0150591Y0019685
X0142717
T03
X0052992Y0008405
X0072992Y0012405
Y0004405
M30
