G04*
G04 #@! TF.GenerationSoftware,Altium Limited,Altium Designer,24.3.1 (35)*
G04*
G04 Layer_Physical_Order=4*
G04 Layer_Color=16711680*
%FSLAX44Y44*%
%MOMM*%
G71*
G04*
G04 #@! TF.SameCoordinates,AD25D3ED-FBA9-419F-A6E4-F2E671057BDA*
G04*
G04*
G04 #@! TF.FilePolarity,Positive*
G04*
G01*
G75*
%ADD39C,0.9906*%
%ADD40O,2.2000X1.0000*%
%ADD41O,1.8000X1.0000*%
%ADD42C,0.5000*%
D39*
X187900Y11190D02*
D03*
Y31510D02*
D03*
X137100Y21350D02*
D03*
D40*
X25000Y26800D02*
D03*
Y113200D02*
D03*
D41*
X65000Y26800D02*
D03*
Y113200D02*
D03*
D42*
X200000Y70000D02*
D03*
X107500Y127500D02*
D03*
X190000Y62500D02*
D03*
X177500Y85000D02*
D03*
X397500Y90000D02*
D03*
X377500D02*
D03*
X385000Y52500D02*
D03*
X372500Y60250D02*
D03*
Y79750D02*
D03*
X120000Y72000D02*
D03*
X119500Y45000D02*
D03*
X130000Y127500D02*
D03*
X160000Y91500D02*
D03*
X140000Y70000D02*
D03*
X133500Y65000D02*
D03*
X167500Y50000D02*
D03*
X197500Y105000D02*
D03*
X190000D02*
D03*
X200000Y82500D02*
D03*
X150000Y127500D02*
D03*
X100000Y102500D02*
D03*
Y90000D02*
D03*
Y52500D02*
D03*
X157500Y10000D02*
D03*
X145000Y32500D02*
D03*
X85000Y25000D02*
D03*
X100500Y45000D02*
D03*
X100000Y77500D02*
D03*
X100000Y65000D02*
D03*
X60000Y38000D02*
D03*
Y102000D02*
D03*
M02*
