G04*
G04 #@! TF.GenerationSoftware,Altium Limited,Altium Designer,24.3.1 (35)*
G04*
G04 Layer_Color=32896*
%FSLAX44Y44*%
%MOMM*%
G71*
G04*
G04 #@! TF.SameCoordinates,AD25D3ED-FBA9-419F-A6E4-F2E671057BDA*
G04*
G04*
G04 #@! TF.FilePolarity,Positive*
G04*
G01*
G75*
G36*
X155274Y89784D02*
X155544Y89749D01*
X155669Y89729D01*
X155787Y89701D01*
X155898Y89680D01*
X156002Y89652D01*
X156092Y89625D01*
X156175Y89597D01*
X156245Y89569D01*
X156307Y89548D01*
X156356Y89528D01*
X156390Y89514D01*
X156411Y89507D01*
X156418Y89500D01*
X156647Y89382D01*
X156744Y89313D01*
X156841Y89243D01*
X156931Y89181D01*
X157015Y89111D01*
X157091Y89042D01*
X157153Y88980D01*
X157216Y88917D01*
X157271Y88862D01*
X157313Y88813D01*
X157347Y88765D01*
X157382Y88730D01*
X157403Y88702D01*
X157410Y88688D01*
X157417Y88682D01*
X157479Y88578D01*
X157542Y88474D01*
X157646Y88245D01*
X157736Y88009D01*
X157812Y87787D01*
X157847Y87690D01*
X157867Y87593D01*
X157895Y87510D01*
X157909Y87433D01*
X157923Y87371D01*
X157937Y87329D01*
X157944Y87295D01*
Y87288D01*
X156252Y87003D01*
X156238Y87114D01*
X156217Y87225D01*
X156189Y87323D01*
X156162Y87413D01*
X156127Y87503D01*
X156092Y87579D01*
X156058Y87648D01*
X156023Y87711D01*
X155988Y87766D01*
X155961Y87815D01*
X155926Y87856D01*
X155905Y87891D01*
X155877Y87919D01*
X155863Y87940D01*
X155857Y87947D01*
X155850Y87954D01*
X155787Y88009D01*
X155718Y88064D01*
X155579Y88148D01*
X155440Y88203D01*
X155316Y88245D01*
X155205Y88272D01*
X155156Y88279D01*
X155114D01*
X155087Y88286D01*
X155038D01*
X154865Y88272D01*
X154719Y88238D01*
X154587Y88196D01*
X154477Y88141D01*
X154386Y88085D01*
X154324Y88044D01*
X154282Y88009D01*
X154269Y87995D01*
X154171Y87877D01*
X154102Y87752D01*
X154047Y87628D01*
X154012Y87503D01*
X153991Y87392D01*
X153984Y87350D01*
Y87309D01*
X153977Y87274D01*
Y87246D01*
Y87232D01*
Y87225D01*
X153984Y87121D01*
X153991Y87024D01*
X154012Y86927D01*
X154040Y86844D01*
X154102Y86685D01*
X154171Y86553D01*
X154213Y86497D01*
X154248Y86449D01*
X154282Y86407D01*
X154310Y86372D01*
X154338Y86345D01*
X154359Y86324D01*
X154366Y86317D01*
X154373Y86310D01*
X154449Y86248D01*
X154532Y86199D01*
X154622Y86158D01*
X154719Y86116D01*
X154907Y86060D01*
X155094Y86026D01*
X155177Y86012D01*
X155260Y86005D01*
X155330Y85998D01*
X155392Y85991D01*
X155517D01*
X155718Y84493D01*
X155544Y84542D01*
X155385Y84577D01*
X155239Y84597D01*
X155114Y84618D01*
X155017Y84625D01*
X154976D01*
X154941Y84632D01*
X154879D01*
X154782Y84625D01*
X154685Y84611D01*
X154594Y84597D01*
X154511Y84570D01*
X154359Y84500D01*
X154227Y84431D01*
X154116Y84355D01*
X154074Y84320D01*
X154040Y84285D01*
X154005Y84258D01*
X153984Y84244D01*
X153977Y84230D01*
X153970Y84223D01*
X153901Y84147D01*
X153846Y84057D01*
X153797Y83966D01*
X153755Y83876D01*
X153686Y83696D01*
X153644Y83516D01*
X153624Y83439D01*
X153617Y83363D01*
X153610Y83294D01*
X153603Y83238D01*
X153596Y83190D01*
Y83148D01*
Y83127D01*
Y83120D01*
X153603Y82989D01*
X153610Y82857D01*
X153631Y82739D01*
X153658Y82628D01*
X153686Y82524D01*
X153721Y82427D01*
X153755Y82344D01*
X153790Y82261D01*
X153832Y82191D01*
X153866Y82129D01*
X153901Y82080D01*
X153929Y82032D01*
X153956Y81997D01*
X153977Y81976D01*
X153984Y81962D01*
X153991Y81955D01*
X154067Y81879D01*
X154144Y81817D01*
X154220Y81754D01*
X154303Y81706D01*
X154386Y81664D01*
X154463Y81629D01*
X154615Y81581D01*
X154747Y81546D01*
X154803Y81539D01*
X154851Y81532D01*
X154893Y81525D01*
X154948D01*
X155045Y81532D01*
X155135Y81539D01*
X155309Y81581D01*
X155461Y81636D01*
X155593Y81706D01*
X155704Y81768D01*
X155745Y81796D01*
X155780Y81824D01*
X155808Y81845D01*
X155829Y81865D01*
X155843Y81872D01*
X155850Y81879D01*
X155912Y81948D01*
X155974Y82025D01*
X156071Y82198D01*
X156155Y82372D01*
X156210Y82538D01*
X156238Y82614D01*
X156252Y82690D01*
X156272Y82753D01*
X156279Y82815D01*
X156293Y82864D01*
Y82899D01*
X156300Y82919D01*
Y82926D01*
X158082Y82704D01*
X158048Y82482D01*
X157999Y82274D01*
X157944Y82073D01*
X157874Y81893D01*
X157791Y81720D01*
X157708Y81553D01*
X157625Y81408D01*
X157535Y81276D01*
X157451Y81158D01*
X157368Y81047D01*
X157292Y80957D01*
X157229Y80887D01*
X157174Y80825D01*
X157125Y80784D01*
X157098Y80756D01*
X157091Y80749D01*
X156924Y80617D01*
X156751Y80499D01*
X156571Y80402D01*
X156390Y80319D01*
X156210Y80243D01*
X156030Y80180D01*
X155857Y80132D01*
X155690Y80097D01*
X155531Y80062D01*
X155392Y80042D01*
X155260Y80021D01*
X155149Y80014D01*
X155059Y80007D01*
X154990Y80000D01*
X154934D01*
X154685Y80007D01*
X154442Y80042D01*
X154213Y80083D01*
X153998Y80139D01*
X153790Y80208D01*
X153603Y80284D01*
X153429Y80360D01*
X153270Y80444D01*
X153131Y80527D01*
X153000Y80610D01*
X152896Y80680D01*
X152805Y80749D01*
X152736Y80804D01*
X152681Y80853D01*
X152653Y80881D01*
X152639Y80887D01*
X152473Y81061D01*
X152334Y81234D01*
X152209Y81414D01*
X152098Y81602D01*
X152015Y81782D01*
X151939Y81962D01*
X151876Y82136D01*
X151828Y82302D01*
X151786Y82455D01*
X151758Y82593D01*
X151737Y82725D01*
X151724Y82829D01*
X151717Y82919D01*
X151710Y82989D01*
Y83030D01*
Y83044D01*
X151717Y83204D01*
X151731Y83356D01*
X151758Y83502D01*
X151786Y83640D01*
X151821Y83772D01*
X151862Y83897D01*
X151911Y84008D01*
X151952Y84112D01*
X152001Y84202D01*
X152050Y84285D01*
X152091Y84362D01*
X152126Y84417D01*
X152154Y84466D01*
X152181Y84500D01*
X152195Y84521D01*
X152202Y84528D01*
X152299Y84639D01*
X152403Y84736D01*
X152507Y84833D01*
X152618Y84909D01*
X152722Y84986D01*
X152833Y85048D01*
X152944Y85104D01*
X153048Y85152D01*
X153145Y85194D01*
X153235Y85228D01*
X153312Y85263D01*
X153381Y85284D01*
X153443Y85298D01*
X153485Y85312D01*
X153513Y85318D01*
X153520D01*
X153395Y85388D01*
X153277Y85464D01*
X153166Y85540D01*
X153062Y85624D01*
X152965Y85700D01*
X152875Y85783D01*
X152715Y85949D01*
X152584Y86123D01*
X152473Y86289D01*
X152382Y86456D01*
X152306Y86608D01*
X152251Y86761D01*
X152209Y86899D01*
X152174Y87017D01*
X152154Y87128D01*
X152140Y87219D01*
X152133Y87281D01*
Y87323D01*
Y87336D01*
X152140Y87503D01*
X152161Y87662D01*
X152195Y87815D01*
X152237Y87960D01*
X152292Y88099D01*
X152348Y88231D01*
X152410Y88356D01*
X152473Y88467D01*
X152535Y88571D01*
X152597Y88661D01*
X152653Y88737D01*
X152708Y88806D01*
X152750Y88862D01*
X152785Y88897D01*
X152805Y88924D01*
X152812Y88931D01*
X152972Y89084D01*
X153138Y89215D01*
X153319Y89333D01*
X153499Y89431D01*
X153679Y89514D01*
X153859Y89590D01*
X154033Y89645D01*
X154206Y89687D01*
X154366Y89729D01*
X154511Y89749D01*
X154643Y89770D01*
X154761Y89784D01*
X154851Y89791D01*
X154920Y89798D01*
X155128D01*
X155274Y89784D01*
D02*
G37*
G36*
X138264Y80166D02*
X136427D01*
Y83647D01*
Y83807D01*
X136420Y83953D01*
X136413Y84091D01*
X136399Y84223D01*
X136385Y84341D01*
X136371Y84452D01*
X136357Y84549D01*
X136344Y84632D01*
X136330Y84708D01*
X136316Y84778D01*
X136302Y84833D01*
X136288Y84882D01*
X136274Y84916D01*
X136267Y84944D01*
X136260Y84958D01*
Y84965D01*
X136191Y85124D01*
X136108Y85263D01*
X136018Y85374D01*
X135934Y85471D01*
X135858Y85540D01*
X135789Y85596D01*
X135747Y85631D01*
X135740Y85638D01*
X135733D01*
X135595Y85714D01*
X135456Y85769D01*
X135317Y85811D01*
X135186Y85839D01*
X135082Y85852D01*
X135033Y85859D01*
X134991Y85866D01*
X134915D01*
X134770Y85859D01*
X134638Y85839D01*
X134527Y85811D01*
X134430Y85776D01*
X134354Y85742D01*
X134298Y85714D01*
X134263Y85693D01*
X134249Y85686D01*
X134159Y85617D01*
X134083Y85540D01*
X134014Y85464D01*
X133965Y85388D01*
X133931Y85325D01*
X133903Y85270D01*
X133889Y85235D01*
X133882Y85221D01*
X133861Y85159D01*
X133847Y85076D01*
X133833Y84986D01*
X133820Y84882D01*
X133806Y84771D01*
X133799Y84653D01*
X133785Y84417D01*
X133778Y84306D01*
Y84195D01*
X133771Y84098D01*
Y84008D01*
Y83939D01*
Y83883D01*
Y83848D01*
Y83835D01*
Y80166D01*
X131933D01*
Y84244D01*
Y84410D01*
X131940Y84570D01*
Y84715D01*
X131947Y84854D01*
X131954Y84972D01*
X131961Y85090D01*
X131975Y85187D01*
X131982Y85277D01*
X131989Y85360D01*
X132003Y85429D01*
X132010Y85485D01*
X132017Y85534D01*
X132024Y85568D01*
Y85596D01*
X132030Y85610D01*
Y85617D01*
X132072Y85783D01*
X132128Y85936D01*
X132190Y86074D01*
X132246Y86192D01*
X132301Y86296D01*
X132329Y86338D01*
X132350Y86372D01*
X132363Y86400D01*
X132377Y86421D01*
X132391Y86428D01*
Y86435D01*
X132495Y86567D01*
X132620Y86685D01*
X132745Y86789D01*
X132870Y86872D01*
X132987Y86941D01*
X133036Y86976D01*
X133078Y86997D01*
X133112Y87017D01*
X133140Y87024D01*
X133154Y87038D01*
X133161D01*
X133355Y87114D01*
X133549Y87177D01*
X133743Y87219D01*
X133917Y87246D01*
X134000Y87253D01*
X134069Y87260D01*
X134138Y87267D01*
X134194Y87274D01*
X134298D01*
X134527Y87260D01*
X134749Y87232D01*
X134957Y87177D01*
X135151Y87107D01*
X135338Y87031D01*
X135518Y86941D01*
X135678Y86851D01*
X135830Y86754D01*
X135962Y86650D01*
X136080Y86560D01*
X136184Y86470D01*
X136267Y86393D01*
X136337Y86324D01*
X136385Y86275D01*
X136413Y86241D01*
X136427Y86227D01*
Y89763D01*
X138264D01*
Y80166D01*
D02*
G37*
G36*
X113912Y87260D02*
X114133Y87225D01*
X114348Y87170D01*
X114549Y87101D01*
X114744Y87017D01*
X114917Y86927D01*
X115083Y86823D01*
X115236Y86726D01*
X115375Y86622D01*
X115492Y86518D01*
X115597Y86428D01*
X115687Y86345D01*
X115756Y86275D01*
X115805Y86220D01*
X115832Y86185D01*
X115846Y86171D01*
Y87121D01*
X117538D01*
Y80166D01*
X115701D01*
Y83536D01*
Y83717D01*
X115694Y83890D01*
X115687Y84043D01*
X115680Y84188D01*
X115666Y84313D01*
X115652Y84431D01*
X115638Y84535D01*
X115624Y84632D01*
X115617Y84715D01*
X115603Y84785D01*
X115590Y84840D01*
X115576Y84889D01*
X115569Y84923D01*
X115562Y84951D01*
X115555Y84965D01*
Y84972D01*
X115492Y85124D01*
X115416Y85256D01*
X115340Y85367D01*
X115257Y85464D01*
X115187Y85534D01*
X115125Y85589D01*
X115083Y85617D01*
X115076Y85631D01*
X115070D01*
X114938Y85707D01*
X114806Y85769D01*
X114674Y85811D01*
X114556Y85839D01*
X114452Y85852D01*
X114411Y85859D01*
X114369Y85866D01*
X114300D01*
X114175Y85859D01*
X114064Y85845D01*
X113967Y85818D01*
X113891Y85797D01*
X113828Y85769D01*
X113780Y85742D01*
X113752Y85728D01*
X113745Y85721D01*
X113669Y85658D01*
X113606Y85589D01*
X113558Y85520D01*
X113516Y85443D01*
X113482Y85381D01*
X113461Y85325D01*
X113447Y85291D01*
X113440Y85284D01*
Y85277D01*
X113419Y85215D01*
X113405Y85138D01*
X113391Y85048D01*
X113378Y84951D01*
X113364Y84736D01*
X113350Y84514D01*
X113343Y84410D01*
Y84306D01*
X113336Y84216D01*
Y84140D01*
Y84070D01*
Y84015D01*
Y83987D01*
Y83973D01*
Y80166D01*
X111498D01*
Y83502D01*
Y83682D01*
X111491Y83841D01*
X111484Y83994D01*
X111478Y84140D01*
X111464Y84271D01*
X111450Y84382D01*
X111436Y84493D01*
X111422Y84584D01*
X111415Y84667D01*
X111401Y84743D01*
X111387Y84798D01*
X111374Y84854D01*
X111367Y84889D01*
X111360Y84916D01*
X111353Y84930D01*
Y84937D01*
X111290Y85097D01*
X111214Y85242D01*
X111131Y85360D01*
X111048Y85457D01*
X110978Y85534D01*
X110916Y85589D01*
X110874Y85617D01*
X110867Y85631D01*
X110860D01*
X110729Y85707D01*
X110604Y85769D01*
X110479Y85811D01*
X110368Y85839D01*
X110271Y85852D01*
X110195Y85866D01*
X110132D01*
X110035Y85859D01*
X109945Y85852D01*
X109862Y85832D01*
X109786Y85804D01*
X109654Y85742D01*
X109543Y85672D01*
X109460Y85596D01*
X109397Y85534D01*
X109376Y85506D01*
X109363Y85485D01*
X109349Y85478D01*
Y85471D01*
X109314Y85409D01*
X109286Y85325D01*
X109259Y85235D01*
X109238Y85131D01*
X109203Y84916D01*
X109175Y84688D01*
X109169Y84577D01*
X109162Y84473D01*
Y84382D01*
X109155Y84299D01*
Y84230D01*
Y84181D01*
Y84147D01*
Y84133D01*
Y80166D01*
X107317D01*
Y84604D01*
Y84785D01*
X107324Y84951D01*
X107338Y85111D01*
X107345Y85249D01*
X107359Y85381D01*
X107380Y85499D01*
X107393Y85603D01*
X107414Y85700D01*
X107435Y85783D01*
X107449Y85852D01*
X107463Y85915D01*
X107484Y85963D01*
X107490Y85998D01*
X107504Y86026D01*
X107511Y86040D01*
Y86047D01*
X107622Y86262D01*
X107685Y86359D01*
X107747Y86442D01*
X107809Y86525D01*
X107879Y86601D01*
X107941Y86671D01*
X108004Y86733D01*
X108066Y86782D01*
X108121Y86830D01*
X108170Y86872D01*
X108212Y86906D01*
X108253Y86927D01*
X108281Y86948D01*
X108295Y86962D01*
X108302D01*
X108406Y87017D01*
X108510Y87066D01*
X108725Y87142D01*
X108947Y87198D01*
X109148Y87232D01*
X109238Y87246D01*
X109328Y87260D01*
X109404Y87267D01*
X109467D01*
X109522Y87274D01*
X109598D01*
X109820Y87260D01*
X110028Y87232D01*
X110223Y87184D01*
X110313Y87163D01*
X110396Y87135D01*
X110465Y87107D01*
X110534Y87087D01*
X110590Y87059D01*
X110646Y87038D01*
X110680Y87024D01*
X110708Y87010D01*
X110729Y86997D01*
X110736D01*
X110930Y86879D01*
X111110Y86747D01*
X111277Y86608D01*
X111422Y86476D01*
X111491Y86414D01*
X111547Y86352D01*
X111595Y86303D01*
X111637Y86255D01*
X111672Y86220D01*
X111699Y86192D01*
X111713Y86171D01*
X111720Y86165D01*
X111845Y86359D01*
X111977Y86532D01*
X112109Y86671D01*
X112240Y86789D01*
X112351Y86879D01*
X112400Y86913D01*
X112441Y86948D01*
X112476Y86969D01*
X112504Y86983D01*
X112518Y86997D01*
X112525D01*
X112719Y87087D01*
X112913Y87156D01*
X113107Y87205D01*
X113287Y87239D01*
X113371Y87253D01*
X113447Y87260D01*
X113516Y87267D01*
X113572D01*
X113620Y87274D01*
X113683D01*
X113912Y87260D01*
D02*
G37*
G36*
X93802D02*
X94024Y87225D01*
X94239Y87170D01*
X94440Y87101D01*
X94634Y87017D01*
X94808Y86927D01*
X94974Y86823D01*
X95127Y86726D01*
X95265Y86622D01*
X95383Y86518D01*
X95487Y86428D01*
X95577Y86345D01*
X95647Y86275D01*
X95695Y86220D01*
X95723Y86185D01*
X95737Y86171D01*
Y87121D01*
X97429D01*
Y80166D01*
X95591D01*
Y83536D01*
Y83717D01*
X95584Y83890D01*
X95577Y84043D01*
X95570Y84188D01*
X95557Y84313D01*
X95543Y84431D01*
X95529Y84535D01*
X95515Y84632D01*
X95508Y84715D01*
X95494Y84785D01*
X95480Y84840D01*
X95466Y84889D01*
X95460Y84923D01*
X95453Y84951D01*
X95446Y84965D01*
Y84972D01*
X95383Y85124D01*
X95307Y85256D01*
X95231Y85367D01*
X95147Y85464D01*
X95078Y85534D01*
X95016Y85589D01*
X94974Y85617D01*
X94967Y85631D01*
X94960D01*
X94829Y85707D01*
X94697Y85769D01*
X94565Y85811D01*
X94447Y85839D01*
X94343Y85852D01*
X94302Y85859D01*
X94260Y85866D01*
X94191D01*
X94066Y85859D01*
X93955Y85845D01*
X93858Y85818D01*
X93781Y85797D01*
X93719Y85769D01*
X93671Y85742D01*
X93643Y85728D01*
X93636Y85721D01*
X93560Y85658D01*
X93497Y85589D01*
X93449Y85520D01*
X93407Y85443D01*
X93372Y85381D01*
X93352Y85325D01*
X93338Y85291D01*
X93331Y85284D01*
Y85277D01*
X93310Y85215D01*
X93296Y85138D01*
X93282Y85048D01*
X93268Y84951D01*
X93254Y84736D01*
X93241Y84514D01*
X93234Y84410D01*
Y84306D01*
X93227Y84216D01*
Y84140D01*
Y84070D01*
Y84015D01*
Y83987D01*
Y83973D01*
Y80166D01*
X91389D01*
Y83502D01*
Y83682D01*
X91382Y83841D01*
X91375Y83994D01*
X91368Y84140D01*
X91355Y84271D01*
X91341Y84382D01*
X91327Y84493D01*
X91313Y84584D01*
X91306Y84667D01*
X91292Y84743D01*
X91278Y84798D01*
X91264Y84854D01*
X91257Y84889D01*
X91250Y84916D01*
X91244Y84930D01*
Y84937D01*
X91181Y85097D01*
X91105Y85242D01*
X91022Y85360D01*
X90939Y85457D01*
X90869Y85534D01*
X90807Y85589D01*
X90765Y85617D01*
X90758Y85631D01*
X90751D01*
X90619Y85707D01*
X90495Y85769D01*
X90370Y85811D01*
X90259Y85839D01*
X90162Y85852D01*
X90086Y85866D01*
X90023D01*
X89926Y85859D01*
X89836Y85852D01*
X89753Y85832D01*
X89677Y85804D01*
X89545Y85742D01*
X89434Y85672D01*
X89351Y85596D01*
X89288Y85534D01*
X89267Y85506D01*
X89254Y85485D01*
X89240Y85478D01*
Y85471D01*
X89205Y85409D01*
X89177Y85325D01*
X89150Y85235D01*
X89129Y85131D01*
X89094Y84916D01*
X89066Y84688D01*
X89059Y84577D01*
X89052Y84473D01*
Y84382D01*
X89045Y84299D01*
Y84230D01*
Y84181D01*
Y84147D01*
Y84133D01*
Y80166D01*
X87208D01*
Y84604D01*
Y84785D01*
X87215Y84951D01*
X87229Y85111D01*
X87236Y85249D01*
X87249Y85381D01*
X87270Y85499D01*
X87284Y85603D01*
X87305Y85700D01*
X87326Y85783D01*
X87340Y85852D01*
X87353Y85915D01*
X87374Y85963D01*
X87381Y85998D01*
X87395Y86026D01*
X87402Y86040D01*
Y86047D01*
X87513Y86262D01*
X87575Y86359D01*
X87638Y86442D01*
X87700Y86525D01*
X87769Y86601D01*
X87832Y86671D01*
X87894Y86733D01*
X87957Y86782D01*
X88012Y86830D01*
X88061Y86872D01*
X88102Y86906D01*
X88144Y86927D01*
X88172Y86948D01*
X88186Y86962D01*
X88193D01*
X88296Y87017D01*
X88401Y87066D01*
X88616Y87142D01*
X88837Y87198D01*
X89038Y87232D01*
X89129Y87246D01*
X89219Y87260D01*
X89295Y87267D01*
X89358D01*
X89413Y87274D01*
X89489D01*
X89711Y87260D01*
X89919Y87232D01*
X90113Y87184D01*
X90204Y87163D01*
X90287Y87135D01*
X90356Y87107D01*
X90425Y87087D01*
X90481Y87059D01*
X90536Y87038D01*
X90571Y87024D01*
X90599Y87010D01*
X90619Y86997D01*
X90626D01*
X90821Y86879D01*
X91001Y86747D01*
X91167Y86608D01*
X91313Y86476D01*
X91382Y86414D01*
X91438Y86352D01*
X91486Y86303D01*
X91528Y86255D01*
X91563Y86220D01*
X91590Y86192D01*
X91604Y86171D01*
X91611Y86165D01*
X91736Y86359D01*
X91868Y86532D01*
X91999Y86671D01*
X92131Y86789D01*
X92242Y86879D01*
X92291Y86913D01*
X92332Y86948D01*
X92367Y86969D01*
X92395Y86983D01*
X92409Y86997D01*
X92416D01*
X92610Y87087D01*
X92804Y87156D01*
X92998Y87205D01*
X93178Y87239D01*
X93261Y87253D01*
X93338Y87260D01*
X93407Y87267D01*
X93462D01*
X93511Y87274D01*
X93574D01*
X93802Y87260D01*
D02*
G37*
G36*
X192497Y83744D02*
X195000Y80166D01*
X192850D01*
X191422Y82316D01*
X190007Y80166D01*
X187754D01*
X190326Y83821D01*
X187969Y87121D01*
X190118D01*
X191422Y85208D01*
X192649Y87121D01*
X194896D01*
X192497Y83744D01*
D02*
G37*
G36*
X178483Y80166D02*
X176687D01*
Y87718D01*
X174794Y80166D01*
X172929D01*
X171028Y87718D01*
X171022Y80166D01*
X169226D01*
Y89763D01*
X172138D01*
X173851Y83210D01*
X175584Y89763D01*
X178483D01*
Y80166D01*
D02*
G37*
G36*
X186866Y82725D02*
X183253D01*
Y84563D01*
X186866D01*
Y82725D01*
D02*
G37*
G36*
X167305Y84639D02*
Y84348D01*
X167298Y84070D01*
X167284Y83814D01*
X167277Y83578D01*
X167263Y83363D01*
X167242Y83162D01*
X167229Y82982D01*
X167208Y82822D01*
X167194Y82677D01*
X167180Y82552D01*
X167159Y82448D01*
X167145Y82358D01*
X167132Y82295D01*
X167125Y82247D01*
X167118Y82212D01*
Y82205D01*
X167055Y81997D01*
X166979Y81803D01*
X166889Y81623D01*
X166799Y81463D01*
X166757Y81394D01*
X166715Y81324D01*
X166674Y81269D01*
X166639Y81227D01*
X166618Y81186D01*
X166597Y81158D01*
X166584Y81144D01*
X166577Y81137D01*
X166410Y80957D01*
X166223Y80797D01*
X166036Y80652D01*
X165856Y80534D01*
X165772Y80485D01*
X165696Y80437D01*
X165627Y80402D01*
X165571Y80367D01*
X165523Y80347D01*
X165481Y80326D01*
X165460Y80319D01*
X165453Y80312D01*
X165315Y80257D01*
X165162Y80208D01*
X164996Y80166D01*
X164829Y80132D01*
X164483Y80076D01*
X164309Y80055D01*
X164143Y80042D01*
X163983Y80028D01*
X163838Y80014D01*
X163706Y80007D01*
X163595D01*
X163498Y80000D01*
X163366D01*
X163158Y80007D01*
X162957Y80014D01*
X162777Y80028D01*
X162596Y80049D01*
X162437Y80069D01*
X162285Y80090D01*
X162146Y80118D01*
X162014Y80146D01*
X161903Y80173D01*
X161806Y80201D01*
X161723Y80222D01*
X161646Y80243D01*
X161591Y80264D01*
X161556Y80277D01*
X161529Y80291D01*
X161522D01*
X161390Y80347D01*
X161272Y80409D01*
X161154Y80471D01*
X161050Y80534D01*
X160946Y80603D01*
X160856Y80666D01*
X160773Y80728D01*
X160697Y80791D01*
X160627Y80846D01*
X160565Y80901D01*
X160516Y80950D01*
X160475Y80985D01*
X160440Y81019D01*
X160419Y81047D01*
X160405Y81061D01*
X160398Y81068D01*
X160253Y81262D01*
X160128Y81463D01*
X160031Y81664D01*
X159948Y81858D01*
X159913Y81941D01*
X159885Y82025D01*
X159864Y82094D01*
X159851Y82156D01*
X159830Y82205D01*
X159823Y82240D01*
X159816Y82268D01*
Y82274D01*
X159788Y82420D01*
X159760Y82586D01*
X159740Y82767D01*
X159726Y82954D01*
X159705Y83155D01*
X159698Y83363D01*
X159684Y83564D01*
X159677Y83765D01*
X159670Y83953D01*
X159663Y84133D01*
Y84292D01*
X159656Y84438D01*
Y84493D01*
Y84549D01*
Y84597D01*
Y84639D01*
Y84674D01*
Y84694D01*
Y84708D01*
Y84715D01*
Y89763D01*
X161591D01*
Y84452D01*
Y84244D01*
X161598Y84057D01*
Y83876D01*
X161605Y83717D01*
X161612Y83564D01*
X161619Y83432D01*
X161626Y83315D01*
X161633Y83204D01*
X161646Y83113D01*
X161653Y83030D01*
X161660Y82968D01*
X161667Y82912D01*
X161674Y82871D01*
Y82836D01*
X161681Y82822D01*
Y82815D01*
X161702Y82725D01*
X161730Y82642D01*
X161792Y82482D01*
X161875Y82344D01*
X161966Y82219D01*
X162049Y82122D01*
X162118Y82052D01*
X162146Y82025D01*
X162167Y82004D01*
X162180Y81997D01*
X162187Y81990D01*
X162271Y81935D01*
X162361Y81879D01*
X162555Y81796D01*
X162763Y81741D01*
X162964Y81699D01*
X163061Y81685D01*
X163144Y81678D01*
X163228Y81664D01*
X163290D01*
X163352Y81657D01*
X163429D01*
X163574Y81664D01*
X163720Y81671D01*
X163845Y81692D01*
X163969Y81713D01*
X164087Y81741D01*
X164191Y81768D01*
X164288Y81803D01*
X164372Y81838D01*
X164455Y81865D01*
X164517Y81900D01*
X164580Y81928D01*
X164628Y81955D01*
X164663Y81976D01*
X164691Y81997D01*
X164704Y82004D01*
X164711Y82011D01*
X164795Y82080D01*
X164871Y82156D01*
X164940Y82233D01*
X165003Y82309D01*
X165100Y82462D01*
X165183Y82614D01*
X165238Y82746D01*
X165259Y82808D01*
X165273Y82857D01*
X165287Y82899D01*
X165294Y82926D01*
X165301Y82947D01*
Y82954D01*
X165315Y83030D01*
X165322Y83127D01*
X165336Y83238D01*
X165342Y83363D01*
X165349Y83488D01*
X165356Y83627D01*
X165363Y83897D01*
Y84029D01*
Y84154D01*
X165370Y84264D01*
Y84362D01*
Y84445D01*
Y84507D01*
Y84549D01*
Y84563D01*
Y89763D01*
X167305D01*
Y84639D01*
D02*
G37*
G36*
X77833Y88501D02*
Y87121D01*
X78679D01*
Y85658D01*
X77833D01*
Y82621D01*
Y82448D01*
Y82288D01*
X77826Y82136D01*
Y82004D01*
X77819Y81886D01*
X77812Y81782D01*
Y81685D01*
X77805Y81609D01*
X77798Y81539D01*
X77791Y81477D01*
Y81428D01*
X77784Y81387D01*
Y81359D01*
X77777Y81338D01*
Y81331D01*
Y81324D01*
X77750Y81165D01*
X77708Y81019D01*
X77666Y80894D01*
X77625Y80791D01*
X77583Y80714D01*
X77548Y80652D01*
X77528Y80617D01*
X77521Y80603D01*
X77445Y80506D01*
X77347Y80423D01*
X77257Y80354D01*
X77160Y80291D01*
X77070Y80243D01*
X77001Y80201D01*
X76973Y80187D01*
X76952Y80180D01*
X76945Y80173D01*
X76938D01*
X76786Y80118D01*
X76626Y80076D01*
X76481Y80049D01*
X76342Y80028D01*
X76217Y80014D01*
X76169D01*
X76127Y80007D01*
X76044D01*
X75746Y80021D01*
X75475Y80049D01*
X75343Y80069D01*
X75226Y80090D01*
X75115Y80118D01*
X75011Y80146D01*
X74921Y80166D01*
X74837Y80194D01*
X74761Y80215D01*
X74699Y80236D01*
X74650Y80250D01*
X74615Y80264D01*
X74595Y80277D01*
X74588D01*
X74747Y81706D01*
X74921Y81650D01*
X75066Y81609D01*
X75198Y81574D01*
X75302Y81553D01*
X75385Y81539D01*
X75441Y81532D01*
X75489D01*
X75552Y81539D01*
X75614Y81546D01*
X75669Y81560D01*
X75711Y81581D01*
X75753Y81595D01*
X75780Y81609D01*
X75794Y81616D01*
X75801Y81623D01*
X75843Y81657D01*
X75877Y81699D01*
X75905Y81734D01*
X75926Y81768D01*
X75940Y81803D01*
X75954Y81831D01*
X75961Y81845D01*
Y81851D01*
X75967Y81886D01*
X75974Y81935D01*
Y81997D01*
X75981Y82066D01*
Y82150D01*
X75988Y82233D01*
Y82406D01*
X75995Y82573D01*
Y82649D01*
Y82711D01*
Y82774D01*
Y82815D01*
Y82843D01*
Y82850D01*
Y85658D01*
X74740D01*
Y87121D01*
X75995D01*
Y89583D01*
X77833Y88501D01*
D02*
G37*
G36*
X127676Y87260D02*
X127919Y87232D01*
X128147Y87184D01*
X128362Y87121D01*
X128563Y87045D01*
X128751Y86962D01*
X128924Y86872D01*
X129083Y86782D01*
X129222Y86692D01*
X129347Y86601D01*
X129458Y86518D01*
X129548Y86442D01*
X129617Y86379D01*
X129666Y86331D01*
X129694Y86303D01*
X129708Y86289D01*
X129867Y86095D01*
X130006Y85894D01*
X130124Y85679D01*
X130228Y85457D01*
X130318Y85228D01*
X130387Y85007D01*
X130449Y84785D01*
X130498Y84570D01*
X130533Y84368D01*
X130561Y84181D01*
X130581Y84015D01*
X130595Y83869D01*
X130602Y83807D01*
Y83751D01*
Y83703D01*
X130609Y83661D01*
Y83627D01*
Y83606D01*
Y83592D01*
Y83585D01*
X130602Y83321D01*
X130581Y83065D01*
X130547Y82822D01*
X130498Y82600D01*
X130449Y82385D01*
X130394Y82191D01*
X130332Y82011D01*
X130262Y81845D01*
X130200Y81692D01*
X130138Y81560D01*
X130082Y81449D01*
X130027Y81359D01*
X129985Y81283D01*
X129950Y81227D01*
X129930Y81200D01*
X129923Y81186D01*
X129749Y80978D01*
X129555Y80797D01*
X129354Y80638D01*
X129139Y80506D01*
X128917Y80388D01*
X128695Y80298D01*
X128473Y80215D01*
X128258Y80153D01*
X128050Y80104D01*
X127856Y80069D01*
X127690Y80042D01*
X127537Y80028D01*
X127468Y80021D01*
X127412Y80014D01*
X127364D01*
X127315Y80007D01*
X127239D01*
X127031Y80014D01*
X126830Y80028D01*
X126636Y80055D01*
X126455Y80090D01*
X126289Y80125D01*
X126130Y80173D01*
X125991Y80222D01*
X125859Y80270D01*
X125741Y80319D01*
X125630Y80360D01*
X125547Y80409D01*
X125471Y80444D01*
X125408Y80478D01*
X125367Y80506D01*
X125339Y80520D01*
X125332Y80527D01*
X125193Y80631D01*
X125062Y80742D01*
X124944Y80867D01*
X124833Y80992D01*
X124736Y81116D01*
X124639Y81248D01*
X124556Y81373D01*
X124486Y81498D01*
X124417Y81609D01*
X124361Y81720D01*
X124313Y81817D01*
X124278Y81900D01*
X124243Y81969D01*
X124223Y82025D01*
X124216Y82052D01*
X124209Y82066D01*
X126039Y82372D01*
X126102Y82184D01*
X126171Y82032D01*
X126247Y81900D01*
X126324Y81796D01*
X126386Y81713D01*
X126442Y81657D01*
X126476Y81623D01*
X126483Y81609D01*
X126490D01*
X126608Y81532D01*
X126726Y81477D01*
X126851Y81435D01*
X126962Y81408D01*
X127066Y81394D01*
X127142Y81387D01*
X127177Y81380D01*
X127218D01*
X127336Y81387D01*
X127447Y81401D01*
X127551Y81421D01*
X127655Y81449D01*
X127835Y81525D01*
X127919Y81560D01*
X127988Y81609D01*
X128057Y81650D01*
X128113Y81685D01*
X128168Y81727D01*
X128210Y81761D01*
X128244Y81789D01*
X128265Y81810D01*
X128279Y81824D01*
X128286Y81831D01*
X128362Y81921D01*
X128425Y82018D01*
X128480Y82122D01*
X128536Y82226D01*
X128577Y82330D01*
X128612Y82434D01*
X128660Y82642D01*
X128681Y82739D01*
X128695Y82822D01*
X128709Y82905D01*
X128716Y82975D01*
Y83030D01*
X128723Y83072D01*
Y83100D01*
Y83106D01*
X124112D01*
X124119Y83488D01*
X124139Y83848D01*
X124181Y84181D01*
X124230Y84486D01*
X124299Y84771D01*
X124368Y85027D01*
X124452Y85263D01*
X124535Y85471D01*
X124618Y85651D01*
X124694Y85811D01*
X124770Y85943D01*
X124840Y86053D01*
X124895Y86137D01*
X124937Y86199D01*
X124972Y86234D01*
X124979Y86248D01*
X125152Y86428D01*
X125339Y86587D01*
X125533Y86726D01*
X125734Y86844D01*
X125942Y86941D01*
X126143Y87024D01*
X126344Y87094D01*
X126532Y87149D01*
X126712Y87191D01*
X126885Y87219D01*
X127031Y87246D01*
X127163Y87260D01*
X127274Y87267D01*
X127315D01*
X127350Y87274D01*
X127419D01*
X127676Y87260D01*
D02*
G37*
G36*
X82978D02*
X83221Y87232D01*
X83449Y87184D01*
X83665Y87121D01*
X83866Y87045D01*
X84053Y86962D01*
X84226Y86872D01*
X84386Y86782D01*
X84524Y86692D01*
X84649Y86601D01*
X84760Y86518D01*
X84850Y86442D01*
X84920Y86379D01*
X84968Y86331D01*
X84996Y86303D01*
X85010Y86289D01*
X85169Y86095D01*
X85308Y85894D01*
X85426Y85679D01*
X85530Y85457D01*
X85620Y85228D01*
X85689Y85007D01*
X85752Y84785D01*
X85800Y84570D01*
X85835Y84368D01*
X85863Y84181D01*
X85883Y84015D01*
X85897Y83869D01*
X85904Y83807D01*
Y83751D01*
Y83703D01*
X85911Y83661D01*
Y83627D01*
Y83606D01*
Y83592D01*
Y83585D01*
X85904Y83321D01*
X85883Y83065D01*
X85849Y82822D01*
X85800Y82600D01*
X85752Y82385D01*
X85696Y82191D01*
X85634Y82011D01*
X85564Y81845D01*
X85502Y81692D01*
X85440Y81560D01*
X85384Y81449D01*
X85329Y81359D01*
X85287Y81283D01*
X85252Y81227D01*
X85232Y81200D01*
X85225Y81186D01*
X85051Y80978D01*
X84857Y80797D01*
X84656Y80638D01*
X84441Y80506D01*
X84219Y80388D01*
X83997Y80298D01*
X83775Y80215D01*
X83560Y80153D01*
X83352Y80104D01*
X83158Y80069D01*
X82992Y80042D01*
X82839Y80028D01*
X82770Y80021D01*
X82715Y80014D01*
X82666D01*
X82617Y80007D01*
X82541D01*
X82333Y80014D01*
X82132Y80028D01*
X81938Y80055D01*
X81758Y80090D01*
X81591Y80125D01*
X81432Y80173D01*
X81293Y80222D01*
X81161Y80270D01*
X81043Y80319D01*
X80932Y80360D01*
X80849Y80409D01*
X80773Y80444D01*
X80710Y80478D01*
X80669Y80506D01*
X80641Y80520D01*
X80634Y80527D01*
X80496Y80631D01*
X80364Y80742D01*
X80246Y80867D01*
X80135Y80992D01*
X80038Y81116D01*
X79941Y81248D01*
X79858Y81373D01*
X79788Y81498D01*
X79719Y81609D01*
X79664Y81720D01*
X79615Y81817D01*
X79580Y81900D01*
X79546Y81969D01*
X79525Y82025D01*
X79518Y82052D01*
X79511Y82066D01*
X81341Y82372D01*
X81404Y82184D01*
X81473Y82032D01*
X81550Y81900D01*
X81626Y81796D01*
X81688Y81713D01*
X81744Y81657D01*
X81778Y81623D01*
X81785Y81609D01*
X81792D01*
X81910Y81532D01*
X82028Y81477D01*
X82153Y81435D01*
X82264Y81408D01*
X82368Y81394D01*
X82444Y81387D01*
X82479Y81380D01*
X82520D01*
X82638Y81387D01*
X82749Y81401D01*
X82853Y81421D01*
X82957Y81449D01*
X83138Y81525D01*
X83221Y81560D01*
X83290Y81609D01*
X83359Y81650D01*
X83415Y81685D01*
X83470Y81727D01*
X83512Y81761D01*
X83547Y81789D01*
X83567Y81810D01*
X83581Y81824D01*
X83588Y81831D01*
X83665Y81921D01*
X83727Y82018D01*
X83782Y82122D01*
X83838Y82226D01*
X83879Y82330D01*
X83914Y82434D01*
X83963Y82642D01*
X83983Y82739D01*
X83997Y82822D01*
X84011Y82905D01*
X84018Y82975D01*
Y83030D01*
X84025Y83072D01*
Y83100D01*
Y83106D01*
X79414D01*
X79421Y83488D01*
X79442Y83848D01*
X79483Y84181D01*
X79532Y84486D01*
X79601Y84771D01*
X79670Y85027D01*
X79754Y85263D01*
X79837Y85471D01*
X79920Y85651D01*
X79996Y85811D01*
X80073Y85943D01*
X80142Y86053D01*
X80197Y86137D01*
X80239Y86199D01*
X80274Y86234D01*
X80281Y86248D01*
X80454Y86428D01*
X80641Y86587D01*
X80835Y86726D01*
X81036Y86844D01*
X81244Y86941D01*
X81446Y87024D01*
X81647Y87094D01*
X81834Y87149D01*
X82014Y87191D01*
X82188Y87219D01*
X82333Y87246D01*
X82465Y87260D01*
X82576Y87267D01*
X82617D01*
X82652Y87274D01*
X82722D01*
X82978Y87260D01*
D02*
G37*
G36*
X71058D02*
X71301Y87232D01*
X71530Y87184D01*
X71745Y87121D01*
X71946Y87045D01*
X72133Y86962D01*
X72306Y86872D01*
X72466Y86782D01*
X72604Y86692D01*
X72729Y86601D01*
X72840Y86518D01*
X72930Y86442D01*
X73000Y86379D01*
X73048Y86331D01*
X73076Y86303D01*
X73090Y86289D01*
X73249Y86095D01*
X73388Y85894D01*
X73506Y85679D01*
X73610Y85457D01*
X73700Y85228D01*
X73769Y85007D01*
X73832Y84785D01*
X73880Y84570D01*
X73915Y84368D01*
X73943Y84181D01*
X73964Y84015D01*
X73977Y83869D01*
X73984Y83807D01*
Y83751D01*
Y83703D01*
X73991Y83661D01*
Y83627D01*
Y83606D01*
Y83592D01*
Y83585D01*
X73984Y83321D01*
X73964Y83065D01*
X73929Y82822D01*
X73880Y82600D01*
X73832Y82385D01*
X73776Y82191D01*
X73714Y82011D01*
X73645Y81845D01*
X73582Y81692D01*
X73520Y81560D01*
X73464Y81449D01*
X73409Y81359D01*
X73367Y81283D01*
X73333Y81227D01*
X73312Y81200D01*
X73305Y81186D01*
X73131Y80978D01*
X72937Y80797D01*
X72736Y80638D01*
X72521Y80506D01*
X72299Y80388D01*
X72077Y80298D01*
X71856Y80215D01*
X71641Y80153D01*
X71433Y80104D01*
X71238Y80069D01*
X71072Y80042D01*
X70919Y80028D01*
X70850Y80021D01*
X70795Y80014D01*
X70746D01*
X70697Y80007D01*
X70621D01*
X70413Y80014D01*
X70212Y80028D01*
X70018Y80055D01*
X69838Y80090D01*
X69671Y80125D01*
X69512Y80173D01*
X69373Y80222D01*
X69241Y80270D01*
X69124Y80319D01*
X69012Y80360D01*
X68929Y80409D01*
X68853Y80444D01*
X68791Y80478D01*
X68749Y80506D01*
X68721Y80520D01*
X68714Y80527D01*
X68576Y80631D01*
X68444Y80742D01*
X68326Y80867D01*
X68215Y80992D01*
X68118Y81116D01*
X68021Y81248D01*
X67938Y81373D01*
X67868Y81498D01*
X67799Y81609D01*
X67744Y81720D01*
X67695Y81817D01*
X67660Y81900D01*
X67626Y81969D01*
X67605Y82025D01*
X67598Y82052D01*
X67591Y82066D01*
X69422Y82372D01*
X69484Y82184D01*
X69553Y82032D01*
X69630Y81900D01*
X69706Y81796D01*
X69768Y81713D01*
X69824Y81657D01*
X69858Y81623D01*
X69865Y81609D01*
X69872D01*
X69990Y81532D01*
X70108Y81477D01*
X70233Y81435D01*
X70344Y81408D01*
X70448Y81394D01*
X70524Y81387D01*
X70559Y81380D01*
X70601D01*
X70718Y81387D01*
X70829Y81401D01*
X70933Y81421D01*
X71037Y81449D01*
X71218Y81525D01*
X71301Y81560D01*
X71370Y81609D01*
X71439Y81650D01*
X71495Y81685D01*
X71550Y81727D01*
X71592Y81761D01*
X71627Y81789D01*
X71648Y81810D01*
X71661Y81824D01*
X71668Y81831D01*
X71745Y81921D01*
X71807Y82018D01*
X71863Y82122D01*
X71918Y82226D01*
X71960Y82330D01*
X71994Y82434D01*
X72043Y82642D01*
X72064Y82739D01*
X72077Y82822D01*
X72091Y82905D01*
X72098Y82975D01*
Y83030D01*
X72105Y83072D01*
Y83100D01*
Y83106D01*
X67494D01*
X67501Y83488D01*
X67522Y83848D01*
X67563Y84181D01*
X67612Y84486D01*
X67681Y84771D01*
X67751Y85027D01*
X67834Y85263D01*
X67917Y85471D01*
X68000Y85651D01*
X68076Y85811D01*
X68153Y85943D01*
X68222Y86053D01*
X68278Y86137D01*
X68319Y86199D01*
X68354Y86234D01*
X68361Y86248D01*
X68534Y86428D01*
X68721Y86587D01*
X68916Y86726D01*
X69117Y86844D01*
X69325Y86941D01*
X69526Y87024D01*
X69727Y87094D01*
X69914Y87149D01*
X70094Y87191D01*
X70268Y87219D01*
X70413Y87246D01*
X70545Y87260D01*
X70656Y87267D01*
X70697D01*
X70732Y87274D01*
X70802D01*
X71058Y87260D01*
D02*
G37*
G36*
X182241Y80166D02*
X180306D01*
Y89763D01*
X182241D01*
Y80166D01*
D02*
G37*
G36*
X147112Y88141D02*
X144263D01*
Y80166D01*
X142328D01*
Y88141D01*
X139485D01*
Y89763D01*
X147112D01*
Y88141D01*
D02*
G37*
G36*
X119570Y87267D02*
X119722Y87239D01*
X119854Y87205D01*
X119972Y87163D01*
X120069Y87121D01*
X120145Y87087D01*
X120173Y87073D01*
X120194Y87059D01*
X120201Y87052D01*
X120208D01*
X120270Y87003D01*
X120339Y86948D01*
X120409Y86886D01*
X120478Y86816D01*
X120610Y86664D01*
X120728Y86511D01*
X120832Y86366D01*
X120880Y86296D01*
X120915Y86241D01*
X120950Y86199D01*
X120970Y86158D01*
X120984Y86137D01*
X120991Y86130D01*
Y87121D01*
X122697D01*
Y80166D01*
X120859D01*
Y82309D01*
Y82476D01*
Y82628D01*
X120853Y82919D01*
X120846Y83183D01*
X120839Y83426D01*
X120825Y83633D01*
X120811Y83828D01*
X120797Y83994D01*
X120783Y84140D01*
X120769Y84264D01*
X120756Y84368D01*
X120742Y84459D01*
X120728Y84528D01*
X120721Y84577D01*
X120714Y84611D01*
X120707Y84632D01*
Y84639D01*
X120679Y84736D01*
X120645Y84833D01*
X120610Y84916D01*
X120575Y84993D01*
X120541Y85062D01*
X120506Y85124D01*
X120443Y85235D01*
X120381Y85312D01*
X120333Y85367D01*
X120305Y85402D01*
X120291Y85409D01*
X120187Y85478D01*
X120076Y85534D01*
X119965Y85568D01*
X119861Y85596D01*
X119771Y85610D01*
X119695Y85624D01*
X119556D01*
X119480Y85610D01*
X119327Y85575D01*
X119181Y85527D01*
X119050Y85471D01*
X118932Y85416D01*
X118883Y85388D01*
X118842Y85367D01*
X118814Y85346D01*
X118786Y85332D01*
X118772Y85325D01*
X118765Y85318D01*
X118190Y86920D01*
X118301Y86983D01*
X118412Y87038D01*
X118523Y87087D01*
X118627Y87128D01*
X118835Y87191D01*
X119022Y87232D01*
X119105Y87246D01*
X119181Y87253D01*
X119244Y87260D01*
X119299Y87267D01*
X119348Y87274D01*
X119410D01*
X119570Y87267D01*
D02*
G37*
G36*
X62952D02*
X63105Y87239D01*
X63236Y87205D01*
X63354Y87163D01*
X63451Y87121D01*
X63528Y87087D01*
X63555Y87073D01*
X63576Y87059D01*
X63583Y87052D01*
X63590D01*
X63652Y87003D01*
X63722Y86948D01*
X63791Y86886D01*
X63860Y86816D01*
X63992Y86664D01*
X64110Y86511D01*
X64214Y86366D01*
X64263Y86296D01*
X64297Y86241D01*
X64332Y86199D01*
X64353Y86158D01*
X64367Y86137D01*
X64374Y86130D01*
Y87121D01*
X66079D01*
Y80166D01*
X64242D01*
Y82309D01*
Y82476D01*
Y82628D01*
X64235Y82919D01*
X64228Y83183D01*
X64221Y83426D01*
X64207Y83633D01*
X64193Y83828D01*
X64179Y83994D01*
X64166Y84140D01*
X64152Y84264D01*
X64138Y84368D01*
X64124Y84459D01*
X64110Y84528D01*
X64103Y84577D01*
X64096Y84611D01*
X64089Y84632D01*
Y84639D01*
X64061Y84736D01*
X64027Y84833D01*
X63992Y84916D01*
X63958Y84993D01*
X63923Y85062D01*
X63888Y85124D01*
X63826Y85235D01*
X63763Y85312D01*
X63715Y85367D01*
X63687Y85402D01*
X63673Y85409D01*
X63569Y85478D01*
X63458Y85534D01*
X63347Y85568D01*
X63243Y85596D01*
X63153Y85610D01*
X63077Y85624D01*
X62938D01*
X62862Y85610D01*
X62709Y85575D01*
X62564Y85527D01*
X62432Y85471D01*
X62314Y85416D01*
X62266Y85388D01*
X62224Y85367D01*
X62196Y85346D01*
X62168Y85332D01*
X62155Y85325D01*
X62148Y85318D01*
X61572Y86920D01*
X61683Y86983D01*
X61794Y87038D01*
X61905Y87087D01*
X62009Y87128D01*
X62217Y87191D01*
X62404Y87232D01*
X62488Y87246D01*
X62564Y87253D01*
X62626Y87260D01*
X62682Y87267D01*
X62730Y87274D01*
X62793D01*
X62952Y87267D01*
D02*
G37*
G36*
X102519D02*
X102706Y87253D01*
X102879Y87232D01*
X103053Y87205D01*
X103212Y87170D01*
X103365Y87128D01*
X103510Y87087D01*
X103642Y87045D01*
X103760Y87003D01*
X103864Y86962D01*
X103961Y86920D01*
X104037Y86886D01*
X104100Y86858D01*
X104148Y86837D01*
X104176Y86823D01*
X104183Y86816D01*
X104335Y86726D01*
X104474Y86629D01*
X104606Y86525D01*
X104731Y86421D01*
X104841Y86310D01*
X104946Y86206D01*
X105043Y86095D01*
X105133Y85991D01*
X105209Y85894D01*
X105272Y85804D01*
X105327Y85721D01*
X105375Y85644D01*
X105410Y85589D01*
X105438Y85540D01*
X105452Y85513D01*
X105459Y85506D01*
X105535Y85346D01*
X105604Y85187D01*
X105667Y85027D01*
X105722Y84868D01*
X105764Y84715D01*
X105799Y84570D01*
X105826Y84431D01*
X105854Y84299D01*
X105875Y84181D01*
X105889Y84070D01*
X105896Y83973D01*
X105903Y83897D01*
X105909Y83828D01*
Y83779D01*
Y83751D01*
Y83737D01*
X105903Y83516D01*
X105889Y83308D01*
X105868Y83106D01*
X105840Y82912D01*
X105805Y82732D01*
X105764Y82566D01*
X105729Y82413D01*
X105681Y82268D01*
X105639Y82143D01*
X105604Y82025D01*
X105563Y81928D01*
X105528Y81851D01*
X105500Y81782D01*
X105479Y81741D01*
X105466Y81706D01*
X105459Y81699D01*
X105368Y81546D01*
X105272Y81408D01*
X105168Y81276D01*
X105063Y81151D01*
X104952Y81040D01*
X104841Y80936D01*
X104738Y80839D01*
X104634Y80756D01*
X104529Y80680D01*
X104439Y80617D01*
X104356Y80562D01*
X104287Y80520D01*
X104224Y80485D01*
X104176Y80458D01*
X104148Y80444D01*
X104141Y80437D01*
X103975Y80360D01*
X103815Y80298D01*
X103649Y80236D01*
X103489Y80187D01*
X103337Y80146D01*
X103184Y80111D01*
X103039Y80083D01*
X102907Y80062D01*
X102782Y80042D01*
X102664Y80028D01*
X102567Y80021D01*
X102477Y80014D01*
X102415Y80007D01*
X102317D01*
X102033Y80021D01*
X101763Y80049D01*
X101506Y80104D01*
X101264Y80166D01*
X101035Y80250D01*
X100827Y80333D01*
X100632Y80430D01*
X100452Y80527D01*
X100293Y80617D01*
X100154Y80714D01*
X100036Y80797D01*
X99932Y80881D01*
X99856Y80943D01*
X99800Y80998D01*
X99766Y81026D01*
X99752Y81040D01*
X99572Y81241D01*
X99412Y81449D01*
X99280Y81671D01*
X99162Y81886D01*
X99065Y82108D01*
X98982Y82323D01*
X98913Y82538D01*
X98857Y82739D01*
X98816Y82926D01*
X98788Y83100D01*
X98760Y83259D01*
X98746Y83391D01*
X98740Y83502D01*
Y83550D01*
X98733Y83585D01*
Y83613D01*
Y83633D01*
Y83647D01*
Y83654D01*
X98746Y83939D01*
X98774Y84216D01*
X98823Y84473D01*
X98892Y84722D01*
X98968Y84951D01*
X99052Y85166D01*
X99142Y85360D01*
X99239Y85540D01*
X99336Y85700D01*
X99426Y85839D01*
X99509Y85963D01*
X99585Y86060D01*
X99648Y86144D01*
X99703Y86199D01*
X99731Y86234D01*
X99745Y86248D01*
X99939Y86428D01*
X100147Y86587D01*
X100355Y86726D01*
X100570Y86844D01*
X100792Y86941D01*
X101007Y87024D01*
X101215Y87094D01*
X101416Y87149D01*
X101603Y87191D01*
X101777Y87219D01*
X101936Y87246D01*
X102068Y87260D01*
X102179Y87267D01*
X102220D01*
X102262Y87274D01*
X102331D01*
X102519Y87267D01*
D02*
G37*
G36*
X183905Y74639D02*
X183982Y74479D01*
X184065Y74327D01*
X184155Y74188D01*
X184252Y74049D01*
X184349Y73924D01*
X184446Y73806D01*
X184536Y73696D01*
X184633Y73598D01*
X184717Y73515D01*
X184793Y73439D01*
X184862Y73376D01*
X184918Y73328D01*
X184966Y73286D01*
X184994Y73266D01*
X185001Y73259D01*
X185160Y73141D01*
X185313Y73030D01*
X185459Y72933D01*
X185604Y72843D01*
X185736Y72759D01*
X185868Y72690D01*
X185986Y72628D01*
X186096Y72565D01*
X186201Y72517D01*
X186291Y72475D01*
X186367Y72447D01*
X186436Y72420D01*
X186492Y72399D01*
X186526Y72385D01*
X186554Y72371D01*
X186561D01*
Y70700D01*
X186311Y70790D01*
X186069Y70887D01*
X185833Y70998D01*
X185611Y71109D01*
X185403Y71220D01*
X185209Y71338D01*
X185029Y71456D01*
X184862Y71567D01*
X184710Y71671D01*
X184578Y71775D01*
X184460Y71865D01*
X184363Y71941D01*
X184287Y72003D01*
X184231Y72052D01*
X184196Y72080D01*
X184183Y72094D01*
Y65166D01*
X182345D01*
Y74798D01*
X183843D01*
X183905Y74639D01*
D02*
G37*
G36*
X192199Y65166D02*
X190541D01*
X187782Y72121D01*
X189675D01*
X190992Y68571D01*
X191034Y68460D01*
X191068Y68356D01*
X191103Y68252D01*
X191131Y68162D01*
X191159Y68093D01*
X191179Y68030D01*
X191186Y67996D01*
X191193Y67982D01*
X191200Y67954D01*
X191214Y67912D01*
X191235Y67829D01*
X191269Y67732D01*
X191297Y67628D01*
X191332Y67538D01*
X191353Y67462D01*
X191367Y67427D01*
X191373Y67406D01*
X191380Y67392D01*
Y67385D01*
X191762Y68571D01*
X193072Y72121D01*
X195000D01*
X192199Y65166D01*
D02*
G37*
G36*
X179204D02*
X177366D01*
Y67004D01*
X179204D01*
Y65166D01*
D02*
G37*
G36*
X173025Y74784D02*
X173261Y74756D01*
X173490Y74708D01*
X173698Y74645D01*
X173892Y74569D01*
X174073Y74486D01*
X174232Y74396D01*
X174378Y74306D01*
X174510Y74215D01*
X174627Y74125D01*
X174724Y74042D01*
X174801Y73966D01*
X174863Y73903D01*
X174912Y73855D01*
X174939Y73827D01*
X174946Y73813D01*
X175030Y73696D01*
X175113Y73571D01*
X175182Y73439D01*
X175258Y73300D01*
X175383Y73009D01*
X175487Y72704D01*
X175577Y72378D01*
X175654Y72052D01*
X175716Y71733D01*
X175765Y71414D01*
X175806Y71109D01*
X175834Y70832D01*
X175841Y70700D01*
X175855Y70575D01*
X175862Y70457D01*
X175869Y70353D01*
X175875Y70256D01*
Y70166D01*
Y70090D01*
X175882Y70027D01*
Y69979D01*
Y69937D01*
Y69916D01*
Y69909D01*
Y69653D01*
X175875Y69410D01*
X175862Y69174D01*
X175848Y68952D01*
X175827Y68738D01*
X175806Y68530D01*
X175778Y68335D01*
X175751Y68148D01*
X175716Y67968D01*
X175681Y67794D01*
X175647Y67635D01*
X175612Y67482D01*
X175577Y67337D01*
X175536Y67205D01*
X175494Y67073D01*
X175452Y66955D01*
X175418Y66845D01*
X175376Y66740D01*
X175335Y66650D01*
X175300Y66560D01*
X175265Y66484D01*
X175224Y66408D01*
X175196Y66345D01*
X175161Y66283D01*
X175133Y66234D01*
X175106Y66193D01*
X175085Y66158D01*
X175064Y66123D01*
X175037Y66089D01*
X175030Y66075D01*
X174863Y65887D01*
X174683Y65721D01*
X174503Y65575D01*
X174315Y65451D01*
X174121Y65347D01*
X173934Y65264D01*
X173754Y65194D01*
X173573Y65132D01*
X173414Y65090D01*
X173254Y65055D01*
X173123Y65035D01*
X172998Y65014D01*
X172901Y65007D01*
X172831Y65000D01*
X172769D01*
X172512Y65014D01*
X172277Y65042D01*
X172048Y65090D01*
X171840Y65153D01*
X171646Y65229D01*
X171465Y65312D01*
X171306Y65395D01*
X171160Y65492D01*
X171028Y65582D01*
X170911Y65666D01*
X170814Y65749D01*
X170737Y65825D01*
X170675Y65887D01*
X170626Y65936D01*
X170599Y65964D01*
X170592Y65978D01*
X170508Y66096D01*
X170425Y66220D01*
X170349Y66352D01*
X170280Y66491D01*
X170155Y66782D01*
X170044Y67094D01*
X169954Y67413D01*
X169877Y67739D01*
X169815Y68065D01*
X169767Y68384D01*
X169725Y68689D01*
X169697Y68973D01*
X169683Y69105D01*
X169676Y69230D01*
X169669Y69341D01*
X169662Y69452D01*
X169655Y69549D01*
Y69639D01*
X169649Y69715D01*
Y69778D01*
Y69826D01*
Y69868D01*
Y69889D01*
Y69896D01*
Y70145D01*
X169655Y70388D01*
X169669Y70624D01*
X169690Y70845D01*
X169711Y71061D01*
X169739Y71269D01*
X169767Y71463D01*
X169794Y71657D01*
X169829Y71837D01*
X169870Y72010D01*
X169905Y72170D01*
X169947Y72329D01*
X169988Y72475D01*
X170030Y72614D01*
X170079Y72745D01*
X170120Y72870D01*
X170162Y72988D01*
X170210Y73092D01*
X170252Y73189D01*
X170294Y73286D01*
X170335Y73370D01*
X170370Y73446D01*
X170411Y73515D01*
X170446Y73571D01*
X170474Y73626D01*
X170501Y73675D01*
X170529Y73709D01*
X170550Y73744D01*
X170571Y73772D01*
X170578Y73786D01*
X170592Y73800D01*
X170744Y73973D01*
X170911Y74132D01*
X171084Y74264D01*
X171264Y74375D01*
X171444Y74472D01*
X171625Y74555D01*
X171805Y74618D01*
X171971Y74673D01*
X172138Y74715D01*
X172284Y74742D01*
X172422Y74770D01*
X172540Y74784D01*
X172637Y74791D01*
X172707Y74798D01*
X172769D01*
X173025Y74784D01*
D02*
G37*
%LPC*%
G36*
X127364Y85866D02*
X127308D01*
X127204Y85859D01*
X127107Y85845D01*
X127010Y85825D01*
X126920Y85804D01*
X126761Y85735D01*
X126622Y85658D01*
X126559Y85617D01*
X126504Y85575D01*
X126462Y85540D01*
X126421Y85513D01*
X126393Y85485D01*
X126372Y85464D01*
X126358Y85450D01*
X126351Y85443D01*
X126282Y85360D01*
X126220Y85270D01*
X126164Y85180D01*
X126123Y85076D01*
X126046Y84875D01*
X125998Y84681D01*
X125977Y84590D01*
X125963Y84507D01*
X125949Y84431D01*
X125942Y84362D01*
Y84306D01*
X125935Y84264D01*
Y84237D01*
Y84230D01*
X128695D01*
Y84368D01*
X128681Y84500D01*
X128660Y84618D01*
X128640Y84736D01*
X128605Y84840D01*
X128577Y84937D01*
X128543Y85027D01*
X128501Y85111D01*
X128466Y85180D01*
X128432Y85242D01*
X128397Y85298D01*
X128369Y85339D01*
X128342Y85374D01*
X128321Y85402D01*
X128314Y85416D01*
X128307Y85422D01*
X128231Y85499D01*
X128147Y85568D01*
X128071Y85631D01*
X127981Y85679D01*
X127898Y85721D01*
X127815Y85755D01*
X127662Y85811D01*
X127586Y85832D01*
X127523Y85845D01*
X127461Y85852D01*
X127405Y85859D01*
X127364Y85866D01*
D02*
G37*
G36*
X82666D02*
X82611D01*
X82507Y85859D01*
X82409Y85845D01*
X82312Y85825D01*
X82222Y85804D01*
X82063Y85735D01*
X81924Y85658D01*
X81862Y85617D01*
X81806Y85575D01*
X81764Y85540D01*
X81723Y85513D01*
X81695Y85485D01*
X81674Y85464D01*
X81660Y85450D01*
X81654Y85443D01*
X81584Y85360D01*
X81522Y85270D01*
X81466Y85180D01*
X81425Y85076D01*
X81348Y84875D01*
X81300Y84681D01*
X81279Y84590D01*
X81265Y84507D01*
X81251Y84431D01*
X81244Y84362D01*
Y84306D01*
X81237Y84264D01*
Y84237D01*
Y84230D01*
X83997D01*
Y84368D01*
X83983Y84500D01*
X83963Y84618D01*
X83942Y84736D01*
X83907Y84840D01*
X83879Y84937D01*
X83845Y85027D01*
X83803Y85111D01*
X83769Y85180D01*
X83734Y85242D01*
X83699Y85298D01*
X83671Y85339D01*
X83644Y85374D01*
X83623Y85402D01*
X83616Y85416D01*
X83609Y85422D01*
X83533Y85499D01*
X83449Y85568D01*
X83373Y85631D01*
X83283Y85679D01*
X83200Y85721D01*
X83117Y85755D01*
X82964Y85811D01*
X82888Y85832D01*
X82825Y85845D01*
X82763Y85852D01*
X82708Y85859D01*
X82666Y85866D01*
D02*
G37*
G36*
X70746D02*
X70691D01*
X70587Y85859D01*
X70490Y85845D01*
X70392Y85825D01*
X70302Y85804D01*
X70143Y85735D01*
X70004Y85658D01*
X69942Y85617D01*
X69886Y85575D01*
X69845Y85540D01*
X69803Y85513D01*
X69775Y85485D01*
X69755Y85464D01*
X69741Y85450D01*
X69734Y85443D01*
X69664Y85360D01*
X69602Y85270D01*
X69546Y85180D01*
X69505Y85076D01*
X69429Y84875D01*
X69380Y84681D01*
X69359Y84590D01*
X69345Y84507D01*
X69331Y84431D01*
X69325Y84362D01*
Y84306D01*
X69318Y84264D01*
Y84237D01*
Y84230D01*
X72077D01*
Y84368D01*
X72064Y84500D01*
X72043Y84618D01*
X72022Y84736D01*
X71987Y84840D01*
X71960Y84937D01*
X71925Y85027D01*
X71883Y85111D01*
X71849Y85180D01*
X71814Y85242D01*
X71779Y85298D01*
X71751Y85339D01*
X71724Y85374D01*
X71703Y85402D01*
X71696Y85416D01*
X71689Y85422D01*
X71613Y85499D01*
X71530Y85568D01*
X71453Y85631D01*
X71363Y85679D01*
X71280Y85721D01*
X71197Y85755D01*
X71044Y85811D01*
X70968Y85832D01*
X70906Y85845D01*
X70843Y85852D01*
X70788Y85859D01*
X70746Y85866D01*
D02*
G37*
G36*
X102394Y85776D02*
X102324D01*
X102193Y85769D01*
X102068Y85755D01*
X101943Y85728D01*
X101832Y85693D01*
X101728Y85644D01*
X101624Y85603D01*
X101534Y85547D01*
X101451Y85499D01*
X101374Y85450D01*
X101312Y85395D01*
X101250Y85353D01*
X101208Y85312D01*
X101166Y85270D01*
X101139Y85242D01*
X101125Y85228D01*
X101118Y85221D01*
X101028Y85111D01*
X100958Y85000D01*
X100889Y84875D01*
X100834Y84743D01*
X100785Y84611D01*
X100743Y84480D01*
X100716Y84355D01*
X100688Y84230D01*
X100667Y84112D01*
X100653Y84001D01*
X100639Y83904D01*
X100632Y83814D01*
X100626Y83744D01*
Y83696D01*
Y83661D01*
Y83647D01*
X100632Y83460D01*
X100646Y83280D01*
X100674Y83113D01*
X100702Y82954D01*
X100737Y82815D01*
X100778Y82683D01*
X100827Y82566D01*
X100868Y82455D01*
X100917Y82365D01*
X100965Y82281D01*
X101007Y82212D01*
X101042Y82156D01*
X101069Y82108D01*
X101097Y82080D01*
X101111Y82059D01*
X101118Y82052D01*
X101208Y81955D01*
X101312Y81872D01*
X101409Y81796D01*
X101513Y81734D01*
X101610Y81685D01*
X101714Y81636D01*
X101811Y81602D01*
X101901Y81574D01*
X101992Y81553D01*
X102068Y81532D01*
X102144Y81519D01*
X102207Y81512D01*
X102255D01*
X102290Y81505D01*
X102324D01*
X102456Y81512D01*
X102581Y81525D01*
X102706Y81553D01*
X102817Y81588D01*
X102928Y81629D01*
X103025Y81678D01*
X103115Y81727D01*
X103198Y81782D01*
X103274Y81831D01*
X103344Y81879D01*
X103399Y81928D01*
X103448Y81969D01*
X103489Y82004D01*
X103517Y82032D01*
X103531Y82046D01*
X103538Y82052D01*
X103621Y82163D01*
X103697Y82281D01*
X103760Y82406D01*
X103815Y82531D01*
X103864Y82663D01*
X103905Y82794D01*
X103940Y82926D01*
X103961Y83051D01*
X103982Y83169D01*
X103996Y83280D01*
X104009Y83384D01*
X104016Y83467D01*
X104023Y83543D01*
Y83592D01*
Y83627D01*
Y83640D01*
X104016Y83828D01*
X104003Y84008D01*
X103982Y84167D01*
X103947Y84327D01*
X103912Y84466D01*
X103871Y84597D01*
X103822Y84715D01*
X103781Y84819D01*
X103732Y84909D01*
X103691Y84993D01*
X103649Y85062D01*
X103614Y85117D01*
X103580Y85166D01*
X103559Y85194D01*
X103545Y85215D01*
X103538Y85221D01*
X103441Y85318D01*
X103344Y85402D01*
X103240Y85478D01*
X103143Y85540D01*
X103039Y85596D01*
X102935Y85644D01*
X102838Y85679D01*
X102747Y85707D01*
X102657Y85728D01*
X102581Y85748D01*
X102505Y85762D01*
X102442Y85769D01*
X102394Y85776D01*
D02*
G37*
G36*
X172824Y73273D02*
X172769D01*
X172651Y73266D01*
X172533Y73238D01*
X172436Y73203D01*
X172346Y73169D01*
X172277Y73127D01*
X172221Y73092D01*
X172193Y73064D01*
X172180Y73057D01*
X172131Y73016D01*
X172083Y72960D01*
X171999Y72836D01*
X171923Y72697D01*
X171861Y72551D01*
X171812Y72420D01*
X171791Y72364D01*
X171770Y72316D01*
X171763Y72274D01*
X171750Y72239D01*
X171743Y72218D01*
Y72211D01*
X171715Y72080D01*
X171687Y71934D01*
X171660Y71761D01*
X171646Y71581D01*
X171625Y71393D01*
X171611Y71199D01*
X171597Y71005D01*
X171590Y70818D01*
X171583Y70630D01*
X171576Y70464D01*
Y70305D01*
X171569Y70166D01*
Y70055D01*
Y70006D01*
Y69972D01*
Y69937D01*
Y69916D01*
Y69903D01*
Y69896D01*
Y69590D01*
X171576Y69306D01*
X171590Y69043D01*
X171597Y68807D01*
X171611Y68592D01*
X171632Y68391D01*
X171646Y68217D01*
X171666Y68065D01*
X171687Y67926D01*
X171701Y67808D01*
X171715Y67711D01*
X171736Y67635D01*
X171743Y67573D01*
X171757Y67531D01*
X171763Y67503D01*
Y67496D01*
X171791Y67399D01*
X171826Y67309D01*
X171854Y67226D01*
X171888Y67150D01*
X171923Y67080D01*
X171958Y67018D01*
X172020Y66907D01*
X172083Y66831D01*
X172131Y66775D01*
X172159Y66747D01*
X172173Y66733D01*
X172277Y66664D01*
X172374Y66616D01*
X172478Y66574D01*
X172568Y66553D01*
X172651Y66539D01*
X172714Y66532D01*
X172755Y66526D01*
X172769D01*
X172887Y66532D01*
X173005Y66560D01*
X173102Y66595D01*
X173192Y66630D01*
X173261Y66671D01*
X173317Y66699D01*
X173351Y66727D01*
X173365Y66733D01*
X173414Y66775D01*
X173456Y66831D01*
X173539Y66955D01*
X173615Y67094D01*
X173677Y67233D01*
X173726Y67365D01*
X173747Y67420D01*
X173761Y67469D01*
X173774Y67510D01*
X173788Y67545D01*
X173795Y67566D01*
Y67573D01*
X173823Y67704D01*
X173851Y67857D01*
X173871Y68023D01*
X173892Y68204D01*
X173906Y68391D01*
X173920Y68585D01*
X173934Y68779D01*
X173941Y68973D01*
X173948Y69154D01*
X173955Y69327D01*
Y69486D01*
X173962Y69618D01*
Y69736D01*
Y69785D01*
Y69819D01*
Y69854D01*
Y69875D01*
Y69889D01*
Y69896D01*
Y70201D01*
X173955Y70485D01*
X173941Y70742D01*
X173934Y70984D01*
X173920Y71199D01*
X173899Y71393D01*
X173885Y71574D01*
X173865Y71726D01*
X173851Y71865D01*
X173837Y71983D01*
X173816Y72080D01*
X173802Y72156D01*
X173788Y72218D01*
X173781Y72260D01*
X173774Y72288D01*
Y72295D01*
X173747Y72392D01*
X173712Y72482D01*
X173684Y72572D01*
X173650Y72648D01*
X173615Y72718D01*
X173580Y72780D01*
X173518Y72884D01*
X173456Y72960D01*
X173407Y73016D01*
X173379Y73051D01*
X173365Y73057D01*
X173261Y73127D01*
X173157Y73182D01*
X173060Y73217D01*
X172970Y73245D01*
X172887Y73259D01*
X172824Y73273D01*
D02*
G37*
%LPD*%
M02*
