G04*
G04 #@! TF.GenerationSoftware,Altium Limited,Altium Designer,24.3.1 (35)*
G04*
G04 Layer_Physical_Order=3*
G04 Layer_Color=16440176*
%FSLAX44Y44*%
%MOMM*%
G71*
G04*
G04 #@! TF.SameCoordinates,AD25D3ED-FBA9-419F-A6E4-F2E671057BDA*
G04*
G04*
G04 #@! TF.FilePolarity,Positive*
G04*
G01*
G75*
%ADD39C,0.9906*%
%ADD40O,2.2000X1.0000*%
%ADD41O,1.8000X1.0000*%
%ADD42C,0.5000*%
G36*
X190000Y138211D02*
X193553Y137861D01*
X196969Y136825D01*
X200117Y135142D01*
X202877Y132877D01*
X205142Y130117D01*
X206824Y126969D01*
X207861Y123553D01*
X208211Y120000D01*
X208216D01*
X208216Y120000D01*
Y90000D01*
X208149D01*
X208552Y86933D01*
X209736Y84074D01*
X211620Y81620D01*
X214074Y79736D01*
X216933Y78552D01*
X220000Y78149D01*
Y78216D01*
X350000D01*
Y78149D01*
X353067Y78552D01*
X355926Y79736D01*
X358380Y81620D01*
X360264Y84074D01*
X361447Y86933D01*
X361851Y90000D01*
X361851D01*
X361813Y90044D01*
X362086Y92121D01*
X362905Y94096D01*
X364207Y95793D01*
X365904Y97095D01*
X367879Y97914D01*
X370000Y98193D01*
Y98216D01*
X370000Y98216D01*
X400000D01*
X400000Y98216D01*
Y98193D01*
X402121Y97914D01*
X404096Y97095D01*
X405793Y95793D01*
X407095Y94096D01*
X407914Y92121D01*
X408193Y90000D01*
X408216D01*
X408216Y90000D01*
Y50597D01*
X407968Y50000D01*
X408139Y49588D01*
X407914Y47880D01*
X407095Y45903D01*
X405793Y44207D01*
X404096Y42905D01*
X402121Y42086D01*
X400000Y41807D01*
Y41784D01*
X370000D01*
Y41807D01*
X367879Y42086D01*
X365904Y42905D01*
X364207Y44207D01*
X362905Y45903D01*
X362086Y47880D01*
X361813Y49956D01*
X361851Y50000D01*
X361851D01*
X361447Y53067D01*
X360264Y55926D01*
X358380Y58380D01*
X355926Y60264D01*
X353067Y61448D01*
X350000Y61851D01*
Y61784D01*
X220000D01*
Y61851D01*
X216933Y61448D01*
X214074Y60264D01*
X211620Y58380D01*
X209736Y55926D01*
X208552Y53067D01*
X208149Y50000D01*
X208216D01*
X208216Y20000D01*
X208216Y20000D01*
X208211D01*
X207861Y16447D01*
X206824Y13031D01*
X205142Y9883D01*
X202877Y7123D01*
X200117Y4858D01*
X196969Y3176D01*
X193553Y2139D01*
X190000Y1789D01*
Y1784D01*
X30000D01*
Y1789D01*
X26447Y2139D01*
X23031Y3176D01*
X19883Y4858D01*
X17123Y7123D01*
X14858Y9883D01*
X13175Y13031D01*
X12139Y16447D01*
X11789Y20000D01*
X11784D01*
Y25811D01*
X13054Y25936D01*
X13348Y24459D01*
X14674Y22474D01*
X16659Y21148D01*
X19000Y20682D01*
X31000D01*
X33341Y21148D01*
X35326Y22474D01*
X36652Y24459D01*
X37118Y26800D01*
X36652Y29141D01*
X35326Y31126D01*
X33341Y32452D01*
X31000Y32918D01*
X19000D01*
X16659Y32452D01*
X14674Y31126D01*
X13348Y29141D01*
X13054Y27664D01*
X11784Y27789D01*
X11784Y112211D01*
X13054Y112337D01*
X13348Y110859D01*
X14674Y108874D01*
X16659Y107548D01*
X19000Y107083D01*
X31000D01*
X33341Y107548D01*
X35326Y108874D01*
X36652Y110859D01*
X37118Y113200D01*
X36652Y115541D01*
X35326Y117526D01*
X33341Y118852D01*
X31000Y119318D01*
X19000D01*
X16659Y118852D01*
X14674Y117526D01*
X13348Y115541D01*
X13054Y114064D01*
X11784Y114189D01*
Y119945D01*
X11789D01*
X12140Y123508D01*
X13179Y126935D01*
X14867Y130093D01*
X17139Y132861D01*
X19907Y135133D01*
X23065Y136821D01*
X26492Y137860D01*
X30055Y138211D01*
Y138216D01*
X190000D01*
Y138211D01*
D02*
G37*
%LPC*%
G36*
X130696Y131000D02*
X129304D01*
X128017Y130467D01*
X127033Y129483D01*
X126500Y128196D01*
Y126804D01*
X127033Y125517D01*
X128017Y124533D01*
X129304Y124000D01*
X130696D01*
X131983Y124533D01*
X132967Y125517D01*
X133500Y126804D01*
Y128196D01*
X132967Y129483D01*
X131983Y130467D01*
X130696Y131000D01*
D02*
G37*
G36*
X108196D02*
X106804D01*
X105517Y130467D01*
X104533Y129483D01*
X104000Y128196D01*
Y126804D01*
X104533Y125517D01*
X105517Y124533D01*
X106804Y124000D01*
X108196D01*
X109483Y124533D01*
X110467Y125517D01*
X111000Y126804D01*
Y128196D01*
X110467Y129483D01*
X109483Y130467D01*
X108196Y131000D01*
D02*
G37*
G36*
X69000Y119318D02*
X61000D01*
X58659Y118852D01*
X56674Y117526D01*
X55348Y115541D01*
X54882Y113200D01*
X55348Y110859D01*
X56674Y108874D01*
X58659Y107548D01*
X61000Y107083D01*
X69000D01*
X71341Y107548D01*
X73326Y108874D01*
X74652Y110859D01*
X75118Y113200D01*
X74652Y115541D01*
X73326Y117526D01*
X71341Y118852D01*
X69000Y119318D01*
D02*
G37*
G36*
X198196Y108500D02*
X196804D01*
X195517Y107967D01*
X194533Y106983D01*
X194000Y105696D01*
Y104304D01*
X194533Y103017D01*
X195517Y102033D01*
X196804Y101500D01*
X198196D01*
X199483Y102033D01*
X200467Y103017D01*
X201000Y104304D01*
Y105696D01*
X200467Y106983D01*
X199483Y107967D01*
X198196Y108500D01*
D02*
G37*
G36*
X100696Y106000D02*
X99304D01*
X98017Y105467D01*
X97033Y104483D01*
X96500Y103196D01*
Y101804D01*
X97033Y100518D01*
X98017Y99533D01*
X99304Y99000D01*
X100696D01*
X101983Y99533D01*
X102967Y100518D01*
X103500Y101804D01*
Y103196D01*
X102967Y104483D01*
X101983Y105467D01*
X100696Y106000D01*
D02*
G37*
G36*
X60696Y105500D02*
X59304D01*
X58017Y104967D01*
X57033Y103983D01*
X56500Y102696D01*
Y101304D01*
X57033Y100017D01*
X58017Y99033D01*
X59304Y98500D01*
X60696D01*
X61983Y99033D01*
X62967Y100017D01*
X63500Y101304D01*
Y102696D01*
X62967Y103983D01*
X61983Y104967D01*
X60696Y105500D01*
D02*
G37*
G36*
X160696Y95000D02*
X159304D01*
X158017Y94467D01*
X157033Y93483D01*
X156500Y92196D01*
Y90804D01*
X157033Y89517D01*
X158017Y88533D01*
X159304Y88000D01*
X160696D01*
X161983Y88533D01*
X162967Y89517D01*
X163500Y90804D01*
Y92196D01*
X162967Y93483D01*
X161983Y94467D01*
X160696Y95000D01*
D02*
G37*
G36*
X100696Y93500D02*
X99304D01*
X98017Y92967D01*
X97033Y91983D01*
X96500Y90696D01*
Y89304D01*
X97033Y88018D01*
X98017Y87033D01*
X99304Y86500D01*
X100696D01*
X101983Y87033D01*
X102967Y88018D01*
X103500Y89304D01*
Y90696D01*
X102967Y91983D01*
X101983Y92967D01*
X100696Y93500D01*
D02*
G37*
G36*
X398196Y93500D02*
X396804D01*
X395517Y92967D01*
X394533Y91983D01*
X394000Y90696D01*
Y89304D01*
X394533Y88017D01*
X395517Y87033D01*
X396804Y86500D01*
X398196D01*
X399483Y87033D01*
X400467Y88017D01*
X401000Y89304D01*
Y90696D01*
X400467Y91983D01*
X399483Y92967D01*
X398196Y93500D01*
D02*
G37*
G36*
X178196Y88500D02*
X176804D01*
X175517Y87967D01*
X174533Y86983D01*
X174000Y85696D01*
Y84304D01*
X174533Y83017D01*
X175517Y82033D01*
X176804Y81500D01*
X178196D01*
X179483Y82033D01*
X180467Y83017D01*
X181000Y84304D01*
Y85696D01*
X180467Y86983D01*
X179483Y87967D01*
X178196Y88500D01*
D02*
G37*
G36*
X373196Y83250D02*
X371804D01*
X370517Y82717D01*
X369533Y81733D01*
X369000Y80446D01*
Y79054D01*
X369533Y77767D01*
X370517Y76783D01*
X371804Y76250D01*
X373196D01*
X374483Y76783D01*
X375467Y77767D01*
X376000Y79054D01*
Y80446D01*
X375467Y81733D01*
X374483Y82717D01*
X373196Y83250D01*
D02*
G37*
G36*
X100696Y81000D02*
X99304D01*
X98017Y80467D01*
X97033Y79483D01*
X96500Y78196D01*
Y76804D01*
X97033Y75518D01*
X98017Y74533D01*
X99304Y74000D01*
X100696D01*
X101983Y74533D01*
X102967Y75518D01*
X103500Y76804D01*
Y78196D01*
X102967Y79483D01*
X101983Y80467D01*
X100696Y81000D01*
D02*
G37*
G36*
X100696Y68500D02*
X99304D01*
X98017Y67967D01*
X97033Y66983D01*
X96500Y65696D01*
Y64304D01*
X97033Y63018D01*
X98017Y62033D01*
X99304Y61500D01*
X100696D01*
X101983Y62033D01*
X102967Y63018D01*
X103500Y64304D01*
Y65696D01*
X102967Y66983D01*
X101983Y67967D01*
X100696Y68500D01*
D02*
G37*
G36*
X134196Y68500D02*
X132804D01*
X131517Y67967D01*
X130533Y66983D01*
X130000Y65696D01*
Y64304D01*
X130533Y63017D01*
X131517Y62033D01*
X132804Y61500D01*
X134196D01*
X135483Y62033D01*
X136467Y63017D01*
X137000Y64304D01*
Y65696D01*
X136467Y66983D01*
X135483Y67967D01*
X134196Y68500D01*
D02*
G37*
G36*
X190696Y66000D02*
X189304D01*
X188017Y65467D01*
X187033Y64483D01*
X186500Y63196D01*
Y61804D01*
X187033Y60517D01*
X188017Y59533D01*
X189304Y59000D01*
X190696D01*
X191983Y59533D01*
X192967Y60517D01*
X193500Y61804D01*
Y63196D01*
X192967Y64483D01*
X191983Y65467D01*
X190696Y66000D01*
D02*
G37*
G36*
X373196Y63750D02*
X371804D01*
X370517Y63217D01*
X369533Y62233D01*
X369000Y60946D01*
Y59554D01*
X369533Y58267D01*
X370517Y57283D01*
X371804Y56750D01*
X373196D01*
X374483Y57283D01*
X375467Y58267D01*
X376000Y59554D01*
Y60946D01*
X375467Y62233D01*
X374483Y63217D01*
X373196Y63750D01*
D02*
G37*
G36*
X100696Y56000D02*
X99304D01*
X98017Y55467D01*
X97033Y54483D01*
X96500Y53196D01*
Y51804D01*
X97033Y50518D01*
X98017Y49533D01*
X99304Y49000D01*
X100696D01*
X101983Y49533D01*
X102967Y50518D01*
X103500Y51804D01*
Y53196D01*
X102967Y54483D01*
X101983Y55467D01*
X100696Y56000D01*
D02*
G37*
G36*
X385696Y56000D02*
X384304D01*
X383017Y55467D01*
X382033Y54483D01*
X381500Y53196D01*
Y51804D01*
X382033Y50517D01*
X383017Y49533D01*
X384304Y49000D01*
X385696D01*
X386983Y49533D01*
X387967Y50517D01*
X388500Y51804D01*
Y53196D01*
X387967Y54483D01*
X386983Y55467D01*
X385696Y56000D01*
D02*
G37*
G36*
X120196Y48500D02*
X118804D01*
X117517Y47967D01*
X116533Y46983D01*
X116000Y45696D01*
Y44304D01*
X116533Y43017D01*
X117517Y42033D01*
X118804Y41500D01*
X120196D01*
X121483Y42033D01*
X122467Y43017D01*
X123000Y44304D01*
Y45696D01*
X122467Y46983D01*
X121483Y47967D01*
X120196Y48500D01*
D02*
G37*
G36*
X60696Y41500D02*
X59304D01*
X58017Y40967D01*
X57033Y39983D01*
X56500Y38696D01*
Y37304D01*
X57033Y36017D01*
X58017Y35033D01*
X59304Y34500D01*
X60696D01*
X61983Y35033D01*
X62967Y36017D01*
X63500Y37304D01*
Y38696D01*
X62967Y39983D01*
X61983Y40967D01*
X60696Y41500D01*
D02*
G37*
G36*
X189084Y37463D02*
X186716D01*
X184528Y36557D01*
X182853Y34882D01*
X181947Y32694D01*
Y30326D01*
X182853Y28138D01*
X184528Y26463D01*
X186716Y25557D01*
X189084D01*
X191272Y26463D01*
X192947Y28138D01*
X193853Y30326D01*
Y32694D01*
X192947Y34882D01*
X191272Y36557D01*
X189084Y37463D01*
D02*
G37*
G36*
X85696Y28500D02*
X84304D01*
X83017Y27967D01*
X82033Y26983D01*
X81500Y25696D01*
Y24304D01*
X82033Y23017D01*
X83017Y22033D01*
X84304Y21500D01*
X85696D01*
X86983Y22033D01*
X87967Y23017D01*
X88500Y24304D01*
Y25696D01*
X87967Y26983D01*
X86983Y27967D01*
X85696Y28500D01*
D02*
G37*
G36*
X69000Y32918D02*
X61000D01*
X58659Y32452D01*
X56674Y31126D01*
X55348Y29141D01*
X54882Y26800D01*
X55348Y24459D01*
X56674Y22474D01*
X58659Y21148D01*
X61000Y20682D01*
X69000D01*
X71341Y21148D01*
X73326Y22474D01*
X74652Y24459D01*
X75118Y26800D01*
X74652Y29141D01*
X73326Y31126D01*
X71341Y32452D01*
X69000Y32918D01*
D02*
G37*
G36*
X138284Y27303D02*
X135916D01*
X133728Y26397D01*
X132053Y24722D01*
X131147Y22534D01*
Y20166D01*
X132053Y17978D01*
X133728Y16303D01*
X135916Y15397D01*
X138284D01*
X140472Y16303D01*
X142147Y17978D01*
X143053Y20166D01*
Y22534D01*
X142147Y24722D01*
X140472Y26397D01*
X138284Y27303D01*
D02*
G37*
G36*
X158196Y13500D02*
X156804D01*
X155517Y12967D01*
X154533Y11983D01*
X154000Y10696D01*
Y9304D01*
X154533Y8017D01*
X155517Y7033D01*
X156804Y6500D01*
X158196D01*
X159483Y7033D01*
X160467Y8017D01*
X161000Y9304D01*
Y10696D01*
X160467Y11983D01*
X159483Y12967D01*
X158196Y13500D01*
D02*
G37*
G36*
X189084Y17143D02*
X186716D01*
X184528Y16237D01*
X182853Y14562D01*
X181947Y12374D01*
Y10006D01*
X182853Y7818D01*
X184528Y6143D01*
X186716Y5237D01*
X189084D01*
X191272Y6143D01*
X192947Y7818D01*
X193853Y10006D01*
Y12374D01*
X192947Y14562D01*
X191272Y16237D01*
X189084Y17143D01*
D02*
G37*
%LPD*%
D39*
X187900Y11190D02*
D03*
Y31510D02*
D03*
X137100Y21350D02*
D03*
D40*
X25000Y26800D02*
D03*
Y113200D02*
D03*
D41*
X65000Y26800D02*
D03*
Y113200D02*
D03*
D42*
X200000Y70000D02*
D03*
X107500Y127500D02*
D03*
X190000Y62500D02*
D03*
X177500Y85000D02*
D03*
X397500Y90000D02*
D03*
X377500D02*
D03*
X385000Y52500D02*
D03*
X372500Y60250D02*
D03*
Y79750D02*
D03*
X120000Y72000D02*
D03*
X119500Y45000D02*
D03*
X130000Y127500D02*
D03*
X160000Y91500D02*
D03*
X140000Y70000D02*
D03*
X133500Y65000D02*
D03*
X167500Y50000D02*
D03*
X197500Y105000D02*
D03*
X190000D02*
D03*
X200000Y82500D02*
D03*
X150000Y127500D02*
D03*
X100000Y102500D02*
D03*
Y90000D02*
D03*
Y52500D02*
D03*
X157500Y10000D02*
D03*
X145000Y32500D02*
D03*
X85000Y25000D02*
D03*
X100500Y45000D02*
D03*
X100000Y77500D02*
D03*
X100000Y65000D02*
D03*
X60000Y38000D02*
D03*
Y102000D02*
D03*
M02*
