G04*
G04 #@! TF.GenerationSoftware,Altium Limited,Altium Designer,24.3.1 (35)*
G04*
G04 Layer_Physical_Order=4*
G04 Layer_Color=16711680*
%FSLAX44Y44*%
%MOMM*%
G71*
G04*
G04 #@! TF.SameCoordinates,1F43D650-1538-4F36-A45F-900124EBB3F4*
G04*
G04*
G04 #@! TF.FilePolarity,Positive*
G04*
G01*
G75*
%ADD37C,0.9906*%
%ADD38O,2.2000X1.0000*%
%ADD39O,1.8000X1.0000*%
%ADD40C,0.5000*%
D37*
X185400Y11190D02*
D03*
Y31510D02*
D03*
X134600Y21350D02*
D03*
D38*
X25000Y26800D02*
D03*
Y113200D02*
D03*
D39*
X65000Y26800D02*
D03*
Y113200D02*
D03*
D40*
X190000Y79500D02*
D03*
Y90500D02*
D03*
X362500Y50000D02*
D03*
X382500D02*
D03*
X387500Y60250D02*
D03*
X375000Y87500D02*
D03*
X387500Y79750D02*
D03*
X190000Y70500D02*
D03*
X182500Y105000D02*
D03*
X107500Y127500D02*
D03*
X120000Y72000D02*
D03*
X119500Y45000D02*
D03*
X130000Y127500D02*
D03*
X160000Y91500D02*
D03*
X140000Y70000D02*
D03*
X133500Y65000D02*
D03*
X167500Y50000D02*
D03*
X150000Y127500D02*
D03*
X100000Y102500D02*
D03*
Y90000D02*
D03*
Y52500D02*
D03*
X155000Y10000D02*
D03*
X142500Y32500D02*
D03*
X85000Y25000D02*
D03*
X100500Y45000D02*
D03*
X100000Y77500D02*
D03*
X100000Y65000D02*
D03*
X60000Y38000D02*
D03*
Y102000D02*
D03*
M02*
