G04*
G04 #@! TF.GenerationSoftware,Altium Limited,Altium Designer,24.4.1 (13)*
G04*
G04 Layer_Color=32896*
%FSLAX44Y44*%
%MOMM*%
G71*
G04*
G04 #@! TF.SameCoordinates,FBB8034B-2DAB-42A6-95D9-ED54450D3511*
G04*
G04*
G04 #@! TF.FilePolarity,Positive*
G04*
G01*
G75*
G36*
X140274Y89784D02*
X140544Y89749D01*
X140669Y89729D01*
X140787Y89701D01*
X140898Y89680D01*
X141002Y89652D01*
X141092Y89625D01*
X141175Y89597D01*
X141245Y89569D01*
X141307Y89548D01*
X141356Y89528D01*
X141390Y89514D01*
X141411Y89507D01*
X141418Y89500D01*
X141647Y89382D01*
X141744Y89313D01*
X141841Y89243D01*
X141931Y89181D01*
X142014Y89111D01*
X142091Y89042D01*
X142153Y88980D01*
X142215Y88917D01*
X142271Y88862D01*
X142313Y88813D01*
X142347Y88765D01*
X142382Y88730D01*
X142403Y88702D01*
X142410Y88688D01*
X142417Y88682D01*
X142479Y88578D01*
X142541Y88474D01*
X142646Y88245D01*
X142736Y88009D01*
X142812Y87787D01*
X142847Y87690D01*
X142867Y87593D01*
X142895Y87510D01*
X142909Y87433D01*
X142923Y87371D01*
X142937Y87329D01*
X142944Y87295D01*
Y87288D01*
X141252Y87003D01*
X141238Y87114D01*
X141217Y87225D01*
X141189Y87323D01*
X141161Y87413D01*
X141127Y87503D01*
X141092Y87579D01*
X141058Y87648D01*
X141023Y87711D01*
X140988Y87766D01*
X140960Y87815D01*
X140926Y87856D01*
X140905Y87891D01*
X140877Y87919D01*
X140863Y87940D01*
X140856Y87947D01*
X140850Y87954D01*
X140787Y88009D01*
X140718Y88064D01*
X140579Y88148D01*
X140440Y88203D01*
X140316Y88245D01*
X140205Y88272D01*
X140156Y88279D01*
X140114D01*
X140087Y88286D01*
X140038D01*
X139865Y88272D01*
X139719Y88238D01*
X139587Y88196D01*
X139476Y88141D01*
X139386Y88085D01*
X139324Y88044D01*
X139282Y88009D01*
X139269Y87995D01*
X139171Y87877D01*
X139102Y87752D01*
X139047Y87628D01*
X139012Y87503D01*
X138991Y87392D01*
X138984Y87350D01*
Y87309D01*
X138977Y87274D01*
Y87246D01*
Y87232D01*
Y87225D01*
X138984Y87121D01*
X138991Y87024D01*
X139012Y86927D01*
X139040Y86844D01*
X139102Y86685D01*
X139171Y86553D01*
X139213Y86497D01*
X139248Y86449D01*
X139282Y86407D01*
X139310Y86372D01*
X139338Y86345D01*
X139359Y86324D01*
X139366Y86317D01*
X139373Y86310D01*
X139449Y86248D01*
X139532Y86199D01*
X139622Y86158D01*
X139719Y86116D01*
X139907Y86060D01*
X140094Y86026D01*
X140177Y86012D01*
X140260Y86005D01*
X140329Y85998D01*
X140392Y85991D01*
X140517D01*
X140718Y84493D01*
X140544Y84542D01*
X140385Y84577D01*
X140239Y84597D01*
X140114Y84618D01*
X140017Y84625D01*
X139976D01*
X139941Y84632D01*
X139879D01*
X139782Y84625D01*
X139685Y84611D01*
X139594Y84597D01*
X139511Y84570D01*
X139359Y84500D01*
X139227Y84431D01*
X139116Y84355D01*
X139074Y84320D01*
X139040Y84285D01*
X139005Y84258D01*
X138984Y84244D01*
X138977Y84230D01*
X138970Y84223D01*
X138901Y84147D01*
X138846Y84057D01*
X138797Y83966D01*
X138755Y83876D01*
X138686Y83696D01*
X138644Y83516D01*
X138624Y83439D01*
X138617Y83363D01*
X138610Y83294D01*
X138603Y83238D01*
X138596Y83190D01*
Y83148D01*
Y83127D01*
Y83120D01*
X138603Y82989D01*
X138610Y82857D01*
X138631Y82739D01*
X138658Y82628D01*
X138686Y82524D01*
X138721Y82427D01*
X138755Y82344D01*
X138790Y82261D01*
X138832Y82191D01*
X138866Y82129D01*
X138901Y82080D01*
X138929Y82032D01*
X138956Y81997D01*
X138977Y81976D01*
X138984Y81962D01*
X138991Y81955D01*
X139067Y81879D01*
X139144Y81817D01*
X139220Y81754D01*
X139303Y81706D01*
X139386Y81664D01*
X139463Y81629D01*
X139615Y81581D01*
X139747Y81546D01*
X139802Y81539D01*
X139851Y81532D01*
X139893Y81525D01*
X139948D01*
X140045Y81532D01*
X140135Y81539D01*
X140309Y81581D01*
X140461Y81636D01*
X140593Y81706D01*
X140704Y81768D01*
X140745Y81796D01*
X140780Y81824D01*
X140808Y81845D01*
X140829Y81865D01*
X140843Y81872D01*
X140850Y81879D01*
X140912Y81948D01*
X140974Y82025D01*
X141071Y82198D01*
X141155Y82372D01*
X141210Y82538D01*
X141238Y82614D01*
X141252Y82690D01*
X141272Y82753D01*
X141279Y82815D01*
X141293Y82864D01*
Y82899D01*
X141300Y82919D01*
Y82926D01*
X143082Y82704D01*
X143048Y82482D01*
X142999Y82274D01*
X142944Y82073D01*
X142874Y81893D01*
X142791Y81720D01*
X142708Y81553D01*
X142625Y81408D01*
X142535Y81276D01*
X142451Y81158D01*
X142368Y81047D01*
X142292Y80957D01*
X142229Y80887D01*
X142174Y80825D01*
X142125Y80784D01*
X142098Y80756D01*
X142091Y80749D01*
X141924Y80617D01*
X141751Y80499D01*
X141571Y80402D01*
X141390Y80319D01*
X141210Y80243D01*
X141030Y80180D01*
X140856Y80132D01*
X140690Y80097D01*
X140531Y80062D01*
X140392Y80042D01*
X140260Y80021D01*
X140149Y80014D01*
X140059Y80007D01*
X139990Y80000D01*
X139934D01*
X139685Y80007D01*
X139442Y80042D01*
X139213Y80083D01*
X138998Y80139D01*
X138790Y80208D01*
X138603Y80284D01*
X138429Y80360D01*
X138270Y80444D01*
X138131Y80527D01*
X137999Y80610D01*
X137895Y80680D01*
X137805Y80749D01*
X137736Y80804D01*
X137681Y80853D01*
X137653Y80881D01*
X137639Y80887D01*
X137472Y81061D01*
X137334Y81234D01*
X137209Y81414D01*
X137098Y81602D01*
X137015Y81782D01*
X136939Y81962D01*
X136876Y82136D01*
X136828Y82302D01*
X136786Y82455D01*
X136758Y82593D01*
X136737Y82725D01*
X136724Y82829D01*
X136717Y82919D01*
X136710Y82989D01*
Y83030D01*
Y83044D01*
X136717Y83204D01*
X136731Y83356D01*
X136758Y83502D01*
X136786Y83640D01*
X136821Y83772D01*
X136862Y83897D01*
X136911Y84008D01*
X136952Y84112D01*
X137001Y84202D01*
X137050Y84285D01*
X137091Y84362D01*
X137126Y84417D01*
X137154Y84466D01*
X137181Y84500D01*
X137195Y84521D01*
X137202Y84528D01*
X137299Y84639D01*
X137403Y84736D01*
X137507Y84833D01*
X137618Y84909D01*
X137722Y84986D01*
X137833Y85048D01*
X137944Y85104D01*
X138048Y85152D01*
X138145Y85194D01*
X138235Y85228D01*
X138312Y85263D01*
X138381Y85284D01*
X138443Y85298D01*
X138485Y85312D01*
X138513Y85318D01*
X138520D01*
X138395Y85388D01*
X138277Y85464D01*
X138166Y85540D01*
X138062Y85624D01*
X137965Y85700D01*
X137875Y85783D01*
X137715Y85949D01*
X137584Y86123D01*
X137472Y86289D01*
X137382Y86456D01*
X137306Y86608D01*
X137251Y86761D01*
X137209Y86899D01*
X137174Y87017D01*
X137154Y87128D01*
X137140Y87219D01*
X137133Y87281D01*
Y87323D01*
Y87336D01*
X137140Y87503D01*
X137161Y87662D01*
X137195Y87815D01*
X137237Y87960D01*
X137292Y88099D01*
X137348Y88231D01*
X137410Y88356D01*
X137472Y88467D01*
X137535Y88571D01*
X137597Y88661D01*
X137653Y88737D01*
X137708Y88806D01*
X137750Y88862D01*
X137785Y88897D01*
X137805Y88924D01*
X137812Y88931D01*
X137972Y89084D01*
X138138Y89215D01*
X138319Y89333D01*
X138499Y89431D01*
X138679Y89514D01*
X138859Y89590D01*
X139033Y89645D01*
X139206Y89687D01*
X139366Y89729D01*
X139511Y89749D01*
X139643Y89770D01*
X139761Y89784D01*
X139851Y89791D01*
X139920Y89798D01*
X140128D01*
X140274Y89784D01*
D02*
G37*
G36*
X123264Y80166D02*
X121427D01*
Y83647D01*
Y83807D01*
X121420Y83953D01*
X121413Y84091D01*
X121399Y84223D01*
X121385Y84341D01*
X121371Y84452D01*
X121357Y84549D01*
X121344Y84632D01*
X121330Y84708D01*
X121316Y84778D01*
X121302Y84833D01*
X121288Y84882D01*
X121274Y84916D01*
X121267Y84944D01*
X121260Y84958D01*
Y84965D01*
X121191Y85124D01*
X121108Y85263D01*
X121018Y85374D01*
X120934Y85471D01*
X120858Y85540D01*
X120789Y85596D01*
X120747Y85631D01*
X120740Y85638D01*
X120733D01*
X120595Y85714D01*
X120456Y85769D01*
X120317Y85811D01*
X120186Y85839D01*
X120082Y85852D01*
X120033Y85859D01*
X119991Y85866D01*
X119915D01*
X119769Y85859D01*
X119638Y85839D01*
X119527Y85811D01*
X119430Y85776D01*
X119354Y85742D01*
X119298Y85714D01*
X119263Y85693D01*
X119249Y85686D01*
X119159Y85617D01*
X119083Y85540D01*
X119014Y85464D01*
X118965Y85388D01*
X118931Y85325D01*
X118903Y85270D01*
X118889Y85235D01*
X118882Y85221D01*
X118861Y85159D01*
X118847Y85076D01*
X118833Y84986D01*
X118820Y84882D01*
X118806Y84771D01*
X118799Y84653D01*
X118785Y84417D01*
X118778Y84306D01*
Y84195D01*
X118771Y84098D01*
Y84008D01*
Y83939D01*
Y83883D01*
Y83848D01*
Y83835D01*
Y80166D01*
X116933D01*
Y84244D01*
Y84410D01*
X116940Y84570D01*
Y84715D01*
X116947Y84854D01*
X116954Y84972D01*
X116961Y85090D01*
X116975Y85187D01*
X116982Y85277D01*
X116989Y85360D01*
X117003Y85429D01*
X117010Y85485D01*
X117017Y85534D01*
X117024Y85568D01*
Y85596D01*
X117030Y85610D01*
Y85617D01*
X117072Y85783D01*
X117128Y85936D01*
X117190Y86074D01*
X117246Y86192D01*
X117301Y86296D01*
X117329Y86338D01*
X117350Y86372D01*
X117363Y86400D01*
X117377Y86421D01*
X117391Y86428D01*
Y86435D01*
X117495Y86567D01*
X117620Y86685D01*
X117745Y86789D01*
X117870Y86872D01*
X117987Y86941D01*
X118036Y86976D01*
X118078Y86997D01*
X118112Y87017D01*
X118140Y87024D01*
X118154Y87038D01*
X118161D01*
X118355Y87114D01*
X118549Y87177D01*
X118743Y87219D01*
X118917Y87246D01*
X119000Y87253D01*
X119069Y87260D01*
X119138Y87267D01*
X119194Y87274D01*
X119298D01*
X119527Y87260D01*
X119749Y87232D01*
X119957Y87177D01*
X120151Y87107D01*
X120338Y87031D01*
X120518Y86941D01*
X120678Y86851D01*
X120830Y86754D01*
X120962Y86650D01*
X121080Y86560D01*
X121184Y86470D01*
X121267Y86393D01*
X121337Y86324D01*
X121385Y86275D01*
X121413Y86241D01*
X121427Y86227D01*
Y89763D01*
X123264D01*
Y80166D01*
D02*
G37*
G36*
X98912Y87260D02*
X99133Y87225D01*
X99348Y87170D01*
X99549Y87101D01*
X99744Y87017D01*
X99917Y86927D01*
X100083Y86823D01*
X100236Y86726D01*
X100375Y86622D01*
X100492Y86518D01*
X100597Y86428D01*
X100687Y86345D01*
X100756Y86275D01*
X100805Y86220D01*
X100832Y86185D01*
X100846Y86171D01*
Y87121D01*
X102538D01*
Y80166D01*
X100701D01*
Y83536D01*
Y83717D01*
X100694Y83890D01*
X100687Y84043D01*
X100680Y84188D01*
X100666Y84313D01*
X100652Y84431D01*
X100638Y84535D01*
X100624Y84632D01*
X100617Y84715D01*
X100603Y84785D01*
X100590Y84840D01*
X100576Y84889D01*
X100569Y84923D01*
X100562Y84951D01*
X100555Y84965D01*
Y84972D01*
X100492Y85124D01*
X100416Y85256D01*
X100340Y85367D01*
X100257Y85464D01*
X100187Y85534D01*
X100125Y85589D01*
X100083Y85617D01*
X100076Y85631D01*
X100070D01*
X99938Y85707D01*
X99806Y85769D01*
X99674Y85811D01*
X99556Y85839D01*
X99452Y85852D01*
X99411Y85859D01*
X99369Y85866D01*
X99300D01*
X99175Y85859D01*
X99064Y85845D01*
X98967Y85818D01*
X98891Y85797D01*
X98828Y85769D01*
X98780Y85742D01*
X98752Y85728D01*
X98745Y85721D01*
X98669Y85658D01*
X98606Y85589D01*
X98558Y85520D01*
X98516Y85443D01*
X98482Y85381D01*
X98461Y85325D01*
X98447Y85291D01*
X98440Y85284D01*
Y85277D01*
X98419Y85215D01*
X98405Y85138D01*
X98391Y85048D01*
X98378Y84951D01*
X98364Y84736D01*
X98350Y84514D01*
X98343Y84410D01*
Y84306D01*
X98336Y84216D01*
Y84140D01*
Y84070D01*
Y84015D01*
Y83987D01*
Y83973D01*
Y80166D01*
X96498D01*
Y83502D01*
Y83682D01*
X96491Y83841D01*
X96484Y83994D01*
X96478Y84140D01*
X96464Y84271D01*
X96450Y84382D01*
X96436Y84493D01*
X96422Y84584D01*
X96415Y84667D01*
X96401Y84743D01*
X96387Y84798D01*
X96374Y84854D01*
X96367Y84889D01*
X96360Y84916D01*
X96353Y84930D01*
Y84937D01*
X96290Y85097D01*
X96214Y85242D01*
X96131Y85360D01*
X96048Y85457D01*
X95978Y85534D01*
X95916Y85589D01*
X95874Y85617D01*
X95867Y85631D01*
X95860D01*
X95729Y85707D01*
X95604Y85769D01*
X95479Y85811D01*
X95368Y85839D01*
X95271Y85852D01*
X95195Y85866D01*
X95132D01*
X95035Y85859D01*
X94945Y85852D01*
X94862Y85832D01*
X94786Y85804D01*
X94654Y85742D01*
X94543Y85672D01*
X94460Y85596D01*
X94397Y85534D01*
X94376Y85506D01*
X94363Y85485D01*
X94349Y85478D01*
Y85471D01*
X94314Y85409D01*
X94286Y85325D01*
X94259Y85235D01*
X94238Y85131D01*
X94203Y84916D01*
X94175Y84688D01*
X94169Y84577D01*
X94162Y84473D01*
Y84382D01*
X94155Y84299D01*
Y84230D01*
Y84181D01*
Y84147D01*
Y84133D01*
Y80166D01*
X92317D01*
Y84604D01*
Y84785D01*
X92324Y84951D01*
X92338Y85111D01*
X92345Y85249D01*
X92359Y85381D01*
X92379Y85499D01*
X92393Y85603D01*
X92414Y85700D01*
X92435Y85783D01*
X92449Y85852D01*
X92463Y85915D01*
X92484Y85963D01*
X92490Y85998D01*
X92504Y86026D01*
X92511Y86040D01*
Y86047D01*
X92622Y86262D01*
X92684Y86359D01*
X92747Y86442D01*
X92809Y86525D01*
X92879Y86601D01*
X92941Y86671D01*
X93004Y86733D01*
X93066Y86782D01*
X93121Y86830D01*
X93170Y86872D01*
X93211Y86906D01*
X93253Y86927D01*
X93281Y86948D01*
X93295Y86962D01*
X93302D01*
X93406Y87017D01*
X93510Y87066D01*
X93725Y87142D01*
X93947Y87198D01*
X94148Y87232D01*
X94238Y87246D01*
X94328Y87260D01*
X94404Y87267D01*
X94467D01*
X94522Y87274D01*
X94598D01*
X94820Y87260D01*
X95028Y87232D01*
X95223Y87184D01*
X95313Y87163D01*
X95396Y87135D01*
X95465Y87107D01*
X95534Y87087D01*
X95590Y87059D01*
X95646Y87038D01*
X95680Y87024D01*
X95708Y87010D01*
X95729Y86997D01*
X95736D01*
X95930Y86879D01*
X96110Y86747D01*
X96277Y86608D01*
X96422Y86476D01*
X96491Y86414D01*
X96547Y86352D01*
X96595Y86303D01*
X96637Y86255D01*
X96672Y86220D01*
X96699Y86192D01*
X96713Y86171D01*
X96720Y86165D01*
X96845Y86359D01*
X96977Y86532D01*
X97109Y86671D01*
X97240Y86789D01*
X97351Y86879D01*
X97400Y86913D01*
X97441Y86948D01*
X97476Y86969D01*
X97504Y86983D01*
X97518Y86997D01*
X97525D01*
X97719Y87087D01*
X97913Y87156D01*
X98107Y87205D01*
X98287Y87239D01*
X98371Y87253D01*
X98447Y87260D01*
X98516Y87267D01*
X98572D01*
X98620Y87274D01*
X98683D01*
X98912Y87260D01*
D02*
G37*
G36*
X78802D02*
X79024Y87225D01*
X79239Y87170D01*
X79440Y87101D01*
X79634Y87017D01*
X79808Y86927D01*
X79974Y86823D01*
X80127Y86726D01*
X80265Y86622D01*
X80383Y86518D01*
X80487Y86428D01*
X80577Y86345D01*
X80647Y86275D01*
X80695Y86220D01*
X80723Y86185D01*
X80737Y86171D01*
Y87121D01*
X82429D01*
Y80166D01*
X80591D01*
Y83536D01*
Y83717D01*
X80584Y83890D01*
X80577Y84043D01*
X80570Y84188D01*
X80557Y84313D01*
X80543Y84431D01*
X80529Y84535D01*
X80515Y84632D01*
X80508Y84715D01*
X80494Y84785D01*
X80480Y84840D01*
X80466Y84889D01*
X80460Y84923D01*
X80453Y84951D01*
X80446Y84965D01*
Y84972D01*
X80383Y85124D01*
X80307Y85256D01*
X80231Y85367D01*
X80147Y85464D01*
X80078Y85534D01*
X80016Y85589D01*
X79974Y85617D01*
X79967Y85631D01*
X79960D01*
X79829Y85707D01*
X79697Y85769D01*
X79565Y85811D01*
X79447Y85839D01*
X79343Y85852D01*
X79302Y85859D01*
X79260Y85866D01*
X79191D01*
X79066Y85859D01*
X78955Y85845D01*
X78858Y85818D01*
X78781Y85797D01*
X78719Y85769D01*
X78671Y85742D01*
X78643Y85728D01*
X78636Y85721D01*
X78560Y85658D01*
X78497Y85589D01*
X78449Y85520D01*
X78407Y85443D01*
X78372Y85381D01*
X78352Y85325D01*
X78338Y85291D01*
X78331Y85284D01*
Y85277D01*
X78310Y85215D01*
X78296Y85138D01*
X78282Y85048D01*
X78268Y84951D01*
X78254Y84736D01*
X78241Y84514D01*
X78234Y84410D01*
Y84306D01*
X78227Y84216D01*
Y84140D01*
Y84070D01*
Y84015D01*
Y83987D01*
Y83973D01*
Y80166D01*
X76389D01*
Y83502D01*
Y83682D01*
X76382Y83841D01*
X76375Y83994D01*
X76368Y84140D01*
X76354Y84271D01*
X76341Y84382D01*
X76327Y84493D01*
X76313Y84584D01*
X76306Y84667D01*
X76292Y84743D01*
X76278Y84798D01*
X76264Y84854D01*
X76257Y84889D01*
X76251Y84916D01*
X76244Y84930D01*
Y84937D01*
X76181Y85097D01*
X76105Y85242D01*
X76022Y85360D01*
X75939Y85457D01*
X75869Y85534D01*
X75807Y85589D01*
X75765Y85617D01*
X75758Y85631D01*
X75751D01*
X75620Y85707D01*
X75495Y85769D01*
X75370Y85811D01*
X75259Y85839D01*
X75162Y85852D01*
X75086Y85866D01*
X75023D01*
X74926Y85859D01*
X74836Y85852D01*
X74753Y85832D01*
X74676Y85804D01*
X74545Y85742D01*
X74434Y85672D01*
X74351Y85596D01*
X74288Y85534D01*
X74267Y85506D01*
X74253Y85485D01*
X74240Y85478D01*
Y85471D01*
X74205Y85409D01*
X74177Y85325D01*
X74149Y85235D01*
X74129Y85131D01*
X74094Y84916D01*
X74066Y84688D01*
X74059Y84577D01*
X74052Y84473D01*
Y84382D01*
X74045Y84299D01*
Y84230D01*
Y84181D01*
Y84147D01*
Y84133D01*
Y80166D01*
X72208D01*
Y84604D01*
Y84785D01*
X72215Y84951D01*
X72229Y85111D01*
X72236Y85249D01*
X72249Y85381D01*
X72270Y85499D01*
X72284Y85603D01*
X72305Y85700D01*
X72326Y85783D01*
X72340Y85852D01*
X72354Y85915D01*
X72374Y85963D01*
X72381Y85998D01*
X72395Y86026D01*
X72402Y86040D01*
Y86047D01*
X72513Y86262D01*
X72575Y86359D01*
X72638Y86442D01*
X72700Y86525D01*
X72769Y86601D01*
X72832Y86671D01*
X72894Y86733D01*
X72957Y86782D01*
X73012Y86830D01*
X73061Y86872D01*
X73102Y86906D01*
X73144Y86927D01*
X73172Y86948D01*
X73186Y86962D01*
X73193D01*
X73296Y87017D01*
X73401Y87066D01*
X73615Y87142D01*
X73837Y87198D01*
X74039Y87232D01*
X74129Y87246D01*
X74219Y87260D01*
X74295Y87267D01*
X74358D01*
X74413Y87274D01*
X74489D01*
X74711Y87260D01*
X74919Y87232D01*
X75113Y87184D01*
X75203Y87163D01*
X75287Y87135D01*
X75356Y87107D01*
X75425Y87087D01*
X75481Y87059D01*
X75536Y87038D01*
X75571Y87024D01*
X75599Y87010D01*
X75620Y86997D01*
X75626D01*
X75821Y86879D01*
X76001Y86747D01*
X76167Y86608D01*
X76313Y86476D01*
X76382Y86414D01*
X76438Y86352D01*
X76486Y86303D01*
X76528Y86255D01*
X76562Y86220D01*
X76590Y86192D01*
X76604Y86171D01*
X76611Y86165D01*
X76736Y86359D01*
X76868Y86532D01*
X76999Y86671D01*
X77131Y86789D01*
X77242Y86879D01*
X77291Y86913D01*
X77332Y86948D01*
X77367Y86969D01*
X77395Y86983D01*
X77408Y86997D01*
X77415D01*
X77610Y87087D01*
X77804Y87156D01*
X77998Y87205D01*
X78178Y87239D01*
X78261Y87253D01*
X78338Y87260D01*
X78407Y87267D01*
X78463D01*
X78511Y87274D01*
X78573D01*
X78802Y87260D01*
D02*
G37*
G36*
X177497Y83744D02*
X180000Y80166D01*
X177850D01*
X176422Y82316D01*
X175007Y80166D01*
X172754D01*
X175326Y83821D01*
X172969Y87121D01*
X175118D01*
X176422Y85208D01*
X177649Y87121D01*
X179896D01*
X177497Y83744D01*
D02*
G37*
G36*
X163483Y80166D02*
X161687D01*
Y87718D01*
X159794Y80166D01*
X157928D01*
X156028Y87718D01*
X156021Y80166D01*
X154226D01*
Y89763D01*
X157138D01*
X158851Y83210D01*
X160584Y89763D01*
X163483D01*
Y80166D01*
D02*
G37*
G36*
X171866Y82725D02*
X168253D01*
Y84563D01*
X171866D01*
Y82725D01*
D02*
G37*
G36*
X152305Y84639D02*
Y84348D01*
X152298Y84070D01*
X152284Y83814D01*
X152277Y83578D01*
X152263Y83363D01*
X152242Y83162D01*
X152228Y82982D01*
X152208Y82822D01*
X152194Y82677D01*
X152180Y82552D01*
X152159Y82448D01*
X152145Y82358D01*
X152131Y82295D01*
X152125Y82247D01*
X152118Y82212D01*
Y82205D01*
X152055Y81997D01*
X151979Y81803D01*
X151889Y81623D01*
X151799Y81463D01*
X151757Y81394D01*
X151715Y81324D01*
X151674Y81269D01*
X151639Y81227D01*
X151618Y81186D01*
X151597Y81158D01*
X151584Y81144D01*
X151577Y81137D01*
X151410Y80957D01*
X151223Y80797D01*
X151036Y80652D01*
X150856Y80534D01*
X150772Y80485D01*
X150696Y80437D01*
X150627Y80402D01*
X150571Y80367D01*
X150523Y80347D01*
X150481Y80326D01*
X150460Y80319D01*
X150453Y80312D01*
X150315Y80257D01*
X150162Y80208D01*
X149996Y80166D01*
X149829Y80132D01*
X149483Y80076D01*
X149309Y80055D01*
X149143Y80042D01*
X148983Y80028D01*
X148838Y80014D01*
X148706Y80007D01*
X148595D01*
X148498Y80000D01*
X148366D01*
X148158Y80007D01*
X147957Y80014D01*
X147777Y80028D01*
X147597Y80049D01*
X147437Y80069D01*
X147284Y80090D01*
X147146Y80118D01*
X147014Y80146D01*
X146903Y80173D01*
X146806Y80201D01*
X146723Y80222D01*
X146646Y80243D01*
X146591Y80264D01*
X146556Y80277D01*
X146529Y80291D01*
X146522D01*
X146390Y80347D01*
X146272Y80409D01*
X146154Y80471D01*
X146050Y80534D01*
X145946Y80603D01*
X145856Y80666D01*
X145773Y80728D01*
X145696Y80791D01*
X145627Y80846D01*
X145565Y80901D01*
X145516Y80950D01*
X145475Y80985D01*
X145440Y81019D01*
X145419Y81047D01*
X145405Y81061D01*
X145398Y81068D01*
X145253Y81262D01*
X145128Y81463D01*
X145031Y81664D01*
X144948Y81858D01*
X144913Y81941D01*
X144885Y82025D01*
X144864Y82094D01*
X144851Y82156D01*
X144830Y82205D01*
X144823Y82240D01*
X144816Y82268D01*
Y82274D01*
X144788Y82420D01*
X144760Y82586D01*
X144740Y82767D01*
X144726Y82954D01*
X144705Y83155D01*
X144698Y83363D01*
X144684Y83564D01*
X144677Y83765D01*
X144670Y83953D01*
X144663Y84133D01*
Y84292D01*
X144656Y84438D01*
Y84493D01*
Y84549D01*
Y84597D01*
Y84639D01*
Y84674D01*
Y84694D01*
Y84708D01*
Y84715D01*
Y89763D01*
X146591D01*
Y84452D01*
Y84244D01*
X146598Y84057D01*
Y83876D01*
X146605Y83717D01*
X146612Y83564D01*
X146619Y83432D01*
X146626Y83315D01*
X146633Y83204D01*
X146646Y83113D01*
X146653Y83030D01*
X146660Y82968D01*
X146667Y82912D01*
X146674Y82871D01*
Y82836D01*
X146681Y82822D01*
Y82815D01*
X146702Y82725D01*
X146730Y82642D01*
X146792Y82482D01*
X146875Y82344D01*
X146966Y82219D01*
X147049Y82122D01*
X147118Y82052D01*
X147146Y82025D01*
X147167Y82004D01*
X147180Y81997D01*
X147187Y81990D01*
X147271Y81935D01*
X147361Y81879D01*
X147555Y81796D01*
X147763Y81741D01*
X147964Y81699D01*
X148061Y81685D01*
X148144Y81678D01*
X148228Y81664D01*
X148290D01*
X148352Y81657D01*
X148429D01*
X148574Y81664D01*
X148720Y81671D01*
X148845Y81692D01*
X148969Y81713D01*
X149087Y81741D01*
X149191Y81768D01*
X149288Y81803D01*
X149372Y81838D01*
X149455Y81865D01*
X149517Y81900D01*
X149580Y81928D01*
X149628Y81955D01*
X149663Y81976D01*
X149691Y81997D01*
X149705Y82004D01*
X149711Y82011D01*
X149795Y82080D01*
X149871Y82156D01*
X149940Y82233D01*
X150003Y82309D01*
X150100Y82462D01*
X150183Y82614D01*
X150238Y82746D01*
X150259Y82808D01*
X150273Y82857D01*
X150287Y82899D01*
X150294Y82926D01*
X150301Y82947D01*
Y82954D01*
X150315Y83030D01*
X150322Y83127D01*
X150336Y83238D01*
X150342Y83363D01*
X150349Y83488D01*
X150356Y83627D01*
X150363Y83897D01*
Y84029D01*
Y84154D01*
X150370Y84264D01*
Y84362D01*
Y84445D01*
Y84507D01*
Y84549D01*
Y84563D01*
Y89763D01*
X152305D01*
Y84639D01*
D02*
G37*
G36*
X62833Y88501D02*
Y87121D01*
X63679D01*
Y85658D01*
X62833D01*
Y82621D01*
Y82448D01*
Y82288D01*
X62826Y82136D01*
Y82004D01*
X62819Y81886D01*
X62812Y81782D01*
Y81685D01*
X62805Y81609D01*
X62798Y81539D01*
X62791Y81477D01*
Y81428D01*
X62784Y81387D01*
Y81359D01*
X62777Y81338D01*
Y81331D01*
Y81324D01*
X62750Y81165D01*
X62708Y81019D01*
X62666Y80894D01*
X62625Y80791D01*
X62583Y80714D01*
X62548Y80652D01*
X62528Y80617D01*
X62521Y80603D01*
X62445Y80506D01*
X62347Y80423D01*
X62257Y80354D01*
X62160Y80291D01*
X62070Y80243D01*
X62001Y80201D01*
X61973Y80187D01*
X61952Y80180D01*
X61945Y80173D01*
X61938D01*
X61786Y80118D01*
X61626Y80076D01*
X61481Y80049D01*
X61342Y80028D01*
X61217Y80014D01*
X61169D01*
X61127Y80007D01*
X61044D01*
X60746Y80021D01*
X60475Y80049D01*
X60343Y80069D01*
X60226Y80090D01*
X60115Y80118D01*
X60011Y80146D01*
X59921Y80166D01*
X59837Y80194D01*
X59761Y80215D01*
X59699Y80236D01*
X59650Y80250D01*
X59615Y80264D01*
X59594Y80277D01*
X59588D01*
X59747Y81706D01*
X59921Y81650D01*
X60066Y81609D01*
X60198Y81574D01*
X60302Y81553D01*
X60385Y81539D01*
X60441Y81532D01*
X60489D01*
X60552Y81539D01*
X60614Y81546D01*
X60669Y81560D01*
X60711Y81581D01*
X60753Y81595D01*
X60780Y81609D01*
X60794Y81616D01*
X60801Y81623D01*
X60843Y81657D01*
X60877Y81699D01*
X60905Y81734D01*
X60926Y81768D01*
X60940Y81803D01*
X60954Y81831D01*
X60961Y81845D01*
Y81851D01*
X60967Y81886D01*
X60974Y81935D01*
Y81997D01*
X60981Y82066D01*
Y82150D01*
X60988Y82233D01*
Y82406D01*
X60995Y82573D01*
Y82649D01*
Y82711D01*
Y82774D01*
Y82815D01*
Y82843D01*
Y82850D01*
Y85658D01*
X59740D01*
Y87121D01*
X60995D01*
Y89583D01*
X62833Y88501D01*
D02*
G37*
G36*
X112676Y87260D02*
X112919Y87232D01*
X113147Y87184D01*
X113362Y87121D01*
X113563Y87045D01*
X113751Y86962D01*
X113924Y86872D01*
X114083Y86782D01*
X114222Y86692D01*
X114347Y86601D01*
X114458Y86518D01*
X114548Y86442D01*
X114617Y86379D01*
X114666Y86331D01*
X114694Y86303D01*
X114708Y86289D01*
X114867Y86095D01*
X115006Y85894D01*
X115124Y85679D01*
X115228Y85457D01*
X115318Y85228D01*
X115387Y85007D01*
X115449Y84785D01*
X115498Y84570D01*
X115533Y84368D01*
X115561Y84181D01*
X115581Y84015D01*
X115595Y83869D01*
X115602Y83807D01*
Y83751D01*
Y83703D01*
X115609Y83661D01*
Y83627D01*
Y83606D01*
Y83592D01*
Y83585D01*
X115602Y83321D01*
X115581Y83065D01*
X115547Y82822D01*
X115498Y82600D01*
X115449Y82385D01*
X115394Y82191D01*
X115332Y82011D01*
X115262Y81845D01*
X115200Y81692D01*
X115138Y81560D01*
X115082Y81449D01*
X115027Y81359D01*
X114985Y81283D01*
X114950Y81227D01*
X114930Y81200D01*
X114923Y81186D01*
X114749Y80978D01*
X114555Y80797D01*
X114354Y80638D01*
X114139Y80506D01*
X113917Y80388D01*
X113695Y80298D01*
X113473Y80215D01*
X113258Y80153D01*
X113050Y80104D01*
X112856Y80069D01*
X112690Y80042D01*
X112537Y80028D01*
X112468Y80021D01*
X112412Y80014D01*
X112364D01*
X112315Y80007D01*
X112239D01*
X112031Y80014D01*
X111830Y80028D01*
X111636Y80055D01*
X111455Y80090D01*
X111289Y80125D01*
X111130Y80173D01*
X110991Y80222D01*
X110859Y80270D01*
X110741Y80319D01*
X110630Y80360D01*
X110547Y80409D01*
X110471Y80444D01*
X110408Y80478D01*
X110367Y80506D01*
X110339Y80520D01*
X110332Y80527D01*
X110193Y80631D01*
X110062Y80742D01*
X109944Y80867D01*
X109833Y80992D01*
X109736Y81116D01*
X109639Y81248D01*
X109556Y81373D01*
X109486Y81498D01*
X109417Y81609D01*
X109361Y81720D01*
X109313Y81817D01*
X109278Y81900D01*
X109243Y81969D01*
X109223Y82025D01*
X109216Y82052D01*
X109209Y82066D01*
X111039Y82372D01*
X111102Y82184D01*
X111171Y82032D01*
X111247Y81900D01*
X111324Y81796D01*
X111386Y81713D01*
X111442Y81657D01*
X111476Y81623D01*
X111483Y81609D01*
X111490D01*
X111608Y81532D01*
X111726Y81477D01*
X111851Y81435D01*
X111962Y81408D01*
X112066Y81394D01*
X112142Y81387D01*
X112177Y81380D01*
X112218D01*
X112336Y81387D01*
X112447Y81401D01*
X112551Y81421D01*
X112655Y81449D01*
X112835Y81525D01*
X112919Y81560D01*
X112988Y81609D01*
X113057Y81650D01*
X113113Y81685D01*
X113168Y81727D01*
X113210Y81761D01*
X113244Y81789D01*
X113265Y81810D01*
X113279Y81824D01*
X113286Y81831D01*
X113362Y81921D01*
X113425Y82018D01*
X113480Y82122D01*
X113536Y82226D01*
X113577Y82330D01*
X113612Y82434D01*
X113660Y82642D01*
X113681Y82739D01*
X113695Y82822D01*
X113709Y82905D01*
X113716Y82975D01*
Y83030D01*
X113723Y83072D01*
Y83100D01*
Y83106D01*
X109112D01*
X109119Y83488D01*
X109139Y83848D01*
X109181Y84181D01*
X109230Y84486D01*
X109299Y84771D01*
X109368Y85027D01*
X109451Y85263D01*
X109535Y85471D01*
X109618Y85651D01*
X109694Y85811D01*
X109770Y85943D01*
X109840Y86053D01*
X109895Y86137D01*
X109937Y86199D01*
X109972Y86234D01*
X109978Y86248D01*
X110152Y86428D01*
X110339Y86587D01*
X110533Y86726D01*
X110734Y86844D01*
X110942Y86941D01*
X111143Y87024D01*
X111344Y87094D01*
X111532Y87149D01*
X111712Y87191D01*
X111885Y87219D01*
X112031Y87246D01*
X112163Y87260D01*
X112274Y87267D01*
X112315D01*
X112350Y87274D01*
X112419D01*
X112676Y87260D01*
D02*
G37*
G36*
X67978D02*
X68221Y87232D01*
X68450Y87184D01*
X68664Y87121D01*
X68866Y87045D01*
X69053Y86962D01*
X69226Y86872D01*
X69386Y86782D01*
X69524Y86692D01*
X69649Y86601D01*
X69760Y86518D01*
X69850Y86442D01*
X69920Y86379D01*
X69968Y86331D01*
X69996Y86303D01*
X70010Y86289D01*
X70169Y86095D01*
X70308Y85894D01*
X70426Y85679D01*
X70530Y85457D01*
X70620Y85228D01*
X70689Y85007D01*
X70752Y84785D01*
X70800Y84570D01*
X70835Y84368D01*
X70863Y84181D01*
X70883Y84015D01*
X70897Y83869D01*
X70904Y83807D01*
Y83751D01*
Y83703D01*
X70911Y83661D01*
Y83627D01*
Y83606D01*
Y83592D01*
Y83585D01*
X70904Y83321D01*
X70883Y83065D01*
X70849Y82822D01*
X70800Y82600D01*
X70752Y82385D01*
X70696Y82191D01*
X70634Y82011D01*
X70564Y81845D01*
X70502Y81692D01*
X70440Y81560D01*
X70384Y81449D01*
X70329Y81359D01*
X70287Y81283D01*
X70252Y81227D01*
X70232Y81200D01*
X70225Y81186D01*
X70051Y80978D01*
X69857Y80797D01*
X69656Y80638D01*
X69441Y80506D01*
X69219Y80388D01*
X68997Y80298D01*
X68775Y80215D01*
X68561Y80153D01*
X68352Y80104D01*
X68158Y80069D01*
X67992Y80042D01*
X67839Y80028D01*
X67770Y80021D01*
X67715Y80014D01*
X67666D01*
X67617Y80007D01*
X67541D01*
X67333Y80014D01*
X67132Y80028D01*
X66938Y80055D01*
X66758Y80090D01*
X66591Y80125D01*
X66432Y80173D01*
X66293Y80222D01*
X66161Y80270D01*
X66043Y80319D01*
X65932Y80360D01*
X65849Y80409D01*
X65773Y80444D01*
X65711Y80478D01*
X65669Y80506D01*
X65641Y80520D01*
X65634Y80527D01*
X65496Y80631D01*
X65364Y80742D01*
X65246Y80867D01*
X65135Y80992D01*
X65038Y81116D01*
X64941Y81248D01*
X64858Y81373D01*
X64788Y81498D01*
X64719Y81609D01*
X64663Y81720D01*
X64615Y81817D01*
X64580Y81900D01*
X64546Y81969D01*
X64525Y82025D01*
X64518Y82052D01*
X64511Y82066D01*
X66342Y82372D01*
X66404Y82184D01*
X66473Y82032D01*
X66550Y81900D01*
X66626Y81796D01*
X66688Y81713D01*
X66744Y81657D01*
X66778Y81623D01*
X66785Y81609D01*
X66792D01*
X66910Y81532D01*
X67028Y81477D01*
X67153Y81435D01*
X67264Y81408D01*
X67368Y81394D01*
X67444Y81387D01*
X67479Y81380D01*
X67520D01*
X67638Y81387D01*
X67749Y81401D01*
X67853Y81421D01*
X67957Y81449D01*
X68137Y81525D01*
X68221Y81560D01*
X68290Y81609D01*
X68359Y81650D01*
X68415Y81685D01*
X68470Y81727D01*
X68512Y81761D01*
X68547Y81789D01*
X68567Y81810D01*
X68581Y81824D01*
X68588Y81831D01*
X68664Y81921D01*
X68727Y82018D01*
X68782Y82122D01*
X68838Y82226D01*
X68879Y82330D01*
X68914Y82434D01*
X68963Y82642D01*
X68983Y82739D01*
X68997Y82822D01*
X69011Y82905D01*
X69018Y82975D01*
Y83030D01*
X69025Y83072D01*
Y83100D01*
Y83106D01*
X64414D01*
X64421Y83488D01*
X64442Y83848D01*
X64483Y84181D01*
X64532Y84486D01*
X64601Y84771D01*
X64670Y85027D01*
X64754Y85263D01*
X64837Y85471D01*
X64920Y85651D01*
X64996Y85811D01*
X65073Y85943D01*
X65142Y86053D01*
X65197Y86137D01*
X65239Y86199D01*
X65274Y86234D01*
X65281Y86248D01*
X65454Y86428D01*
X65641Y86587D01*
X65835Y86726D01*
X66036Y86844D01*
X66244Y86941D01*
X66445Y87024D01*
X66647Y87094D01*
X66834Y87149D01*
X67014Y87191D01*
X67188Y87219D01*
X67333Y87246D01*
X67465Y87260D01*
X67576Y87267D01*
X67617D01*
X67652Y87274D01*
X67721D01*
X67978Y87260D01*
D02*
G37*
G36*
X56058D02*
X56301Y87232D01*
X56530Y87184D01*
X56745Y87121D01*
X56946Y87045D01*
X57133Y86962D01*
X57306Y86872D01*
X57466Y86782D01*
X57604Y86692D01*
X57729Y86601D01*
X57840Y86518D01*
X57930Y86442D01*
X58000Y86379D01*
X58048Y86331D01*
X58076Y86303D01*
X58090Y86289D01*
X58249Y86095D01*
X58388Y85894D01*
X58506Y85679D01*
X58610Y85457D01*
X58700Y85228D01*
X58769Y85007D01*
X58832Y84785D01*
X58880Y84570D01*
X58915Y84368D01*
X58943Y84181D01*
X58963Y84015D01*
X58977Y83869D01*
X58984Y83807D01*
Y83751D01*
Y83703D01*
X58991Y83661D01*
Y83627D01*
Y83606D01*
Y83592D01*
Y83585D01*
X58984Y83321D01*
X58963Y83065D01*
X58929Y82822D01*
X58880Y82600D01*
X58832Y82385D01*
X58776Y82191D01*
X58714Y82011D01*
X58645Y81845D01*
X58582Y81692D01*
X58520Y81560D01*
X58464Y81449D01*
X58409Y81359D01*
X58367Y81283D01*
X58333Y81227D01*
X58312Y81200D01*
X58305Y81186D01*
X58131Y80978D01*
X57937Y80797D01*
X57736Y80638D01*
X57521Y80506D01*
X57299Y80388D01*
X57077Y80298D01*
X56856Y80215D01*
X56641Y80153D01*
X56433Y80104D01*
X56238Y80069D01*
X56072Y80042D01*
X55919Y80028D01*
X55850Y80021D01*
X55795Y80014D01*
X55746D01*
X55697Y80007D01*
X55621D01*
X55413Y80014D01*
X55212Y80028D01*
X55018Y80055D01*
X54838Y80090D01*
X54671Y80125D01*
X54512Y80173D01*
X54373Y80222D01*
X54241Y80270D01*
X54124Y80319D01*
X54012Y80360D01*
X53929Y80409D01*
X53853Y80444D01*
X53791Y80478D01*
X53749Y80506D01*
X53721Y80520D01*
X53714Y80527D01*
X53576Y80631D01*
X53444Y80742D01*
X53326Y80867D01*
X53215Y80992D01*
X53118Y81116D01*
X53021Y81248D01*
X52938Y81373D01*
X52868Y81498D01*
X52799Y81609D01*
X52744Y81720D01*
X52695Y81817D01*
X52660Y81900D01*
X52626Y81969D01*
X52605Y82025D01*
X52598Y82052D01*
X52591Y82066D01*
X54422Y82372D01*
X54484Y82184D01*
X54553Y82032D01*
X54630Y81900D01*
X54706Y81796D01*
X54768Y81713D01*
X54824Y81657D01*
X54858Y81623D01*
X54865Y81609D01*
X54872D01*
X54990Y81532D01*
X55108Y81477D01*
X55233Y81435D01*
X55344Y81408D01*
X55448Y81394D01*
X55524Y81387D01*
X55559Y81380D01*
X55600D01*
X55718Y81387D01*
X55829Y81401D01*
X55933Y81421D01*
X56037Y81449D01*
X56218Y81525D01*
X56301Y81560D01*
X56370Y81609D01*
X56439Y81650D01*
X56495Y81685D01*
X56550Y81727D01*
X56592Y81761D01*
X56627Y81789D01*
X56648Y81810D01*
X56661Y81824D01*
X56668Y81831D01*
X56745Y81921D01*
X56807Y82018D01*
X56863Y82122D01*
X56918Y82226D01*
X56960Y82330D01*
X56994Y82434D01*
X57043Y82642D01*
X57064Y82739D01*
X57077Y82822D01*
X57091Y82905D01*
X57098Y82975D01*
Y83030D01*
X57105Y83072D01*
Y83100D01*
Y83106D01*
X52494D01*
X52501Y83488D01*
X52522Y83848D01*
X52563Y84181D01*
X52612Y84486D01*
X52681Y84771D01*
X52751Y85027D01*
X52834Y85263D01*
X52917Y85471D01*
X53000Y85651D01*
X53076Y85811D01*
X53153Y85943D01*
X53222Y86053D01*
X53278Y86137D01*
X53319Y86199D01*
X53354Y86234D01*
X53361Y86248D01*
X53534Y86428D01*
X53721Y86587D01*
X53915Y86726D01*
X54117Y86844D01*
X54325Y86941D01*
X54526Y87024D01*
X54727Y87094D01*
X54914Y87149D01*
X55094Y87191D01*
X55268Y87219D01*
X55413Y87246D01*
X55545Y87260D01*
X55656Y87267D01*
X55697D01*
X55732Y87274D01*
X55802D01*
X56058Y87260D01*
D02*
G37*
G36*
X167241Y80166D02*
X165306D01*
Y89763D01*
X167241D01*
Y80166D01*
D02*
G37*
G36*
X132112Y88141D02*
X129263D01*
Y80166D01*
X127328D01*
Y88141D01*
X124485D01*
Y89763D01*
X132112D01*
Y88141D01*
D02*
G37*
G36*
X104570Y87267D02*
X104722Y87239D01*
X104854Y87205D01*
X104972Y87163D01*
X105069Y87121D01*
X105145Y87087D01*
X105173Y87073D01*
X105194Y87059D01*
X105201Y87052D01*
X105208D01*
X105270Y87003D01*
X105339Y86948D01*
X105409Y86886D01*
X105478Y86816D01*
X105610Y86664D01*
X105728Y86511D01*
X105832Y86366D01*
X105880Y86296D01*
X105915Y86241D01*
X105950Y86199D01*
X105970Y86158D01*
X105984Y86137D01*
X105991Y86130D01*
Y87121D01*
X107697D01*
Y80166D01*
X105859D01*
Y82309D01*
Y82476D01*
Y82628D01*
X105853Y82919D01*
X105846Y83183D01*
X105839Y83426D01*
X105825Y83633D01*
X105811Y83828D01*
X105797Y83994D01*
X105783Y84140D01*
X105769Y84264D01*
X105756Y84368D01*
X105742Y84459D01*
X105728Y84528D01*
X105721Y84577D01*
X105714Y84611D01*
X105707Y84632D01*
Y84639D01*
X105679Y84736D01*
X105645Y84833D01*
X105610Y84916D01*
X105575Y84993D01*
X105541Y85062D01*
X105506Y85124D01*
X105443Y85235D01*
X105381Y85312D01*
X105332Y85367D01*
X105305Y85402D01*
X105291Y85409D01*
X105187Y85478D01*
X105076Y85534D01*
X104965Y85568D01*
X104861Y85596D01*
X104771Y85610D01*
X104695Y85624D01*
X104556D01*
X104480Y85610D01*
X104327Y85575D01*
X104181Y85527D01*
X104050Y85471D01*
X103932Y85416D01*
X103883Y85388D01*
X103842Y85367D01*
X103814Y85346D01*
X103786Y85332D01*
X103772Y85325D01*
X103765Y85318D01*
X103190Y86920D01*
X103301Y86983D01*
X103412Y87038D01*
X103523Y87087D01*
X103627Y87128D01*
X103835Y87191D01*
X104022Y87232D01*
X104105Y87246D01*
X104181Y87253D01*
X104244Y87260D01*
X104299Y87267D01*
X104348Y87274D01*
X104410D01*
X104570Y87267D01*
D02*
G37*
G36*
X47952D02*
X48105Y87239D01*
X48236Y87205D01*
X48354Y87163D01*
X48451Y87121D01*
X48528Y87087D01*
X48555Y87073D01*
X48576Y87059D01*
X48583Y87052D01*
X48590D01*
X48652Y87003D01*
X48722Y86948D01*
X48791Y86886D01*
X48860Y86816D01*
X48992Y86664D01*
X49110Y86511D01*
X49214Y86366D01*
X49263Y86296D01*
X49297Y86241D01*
X49332Y86199D01*
X49353Y86158D01*
X49367Y86137D01*
X49373Y86130D01*
Y87121D01*
X51079D01*
Y80166D01*
X49242D01*
Y82309D01*
Y82476D01*
Y82628D01*
X49235Y82919D01*
X49228Y83183D01*
X49221Y83426D01*
X49207Y83633D01*
X49193Y83828D01*
X49179Y83994D01*
X49166Y84140D01*
X49152Y84264D01*
X49138Y84368D01*
X49124Y84459D01*
X49110Y84528D01*
X49103Y84577D01*
X49096Y84611D01*
X49089Y84632D01*
Y84639D01*
X49061Y84736D01*
X49027Y84833D01*
X48992Y84916D01*
X48958Y84993D01*
X48923Y85062D01*
X48888Y85124D01*
X48826Y85235D01*
X48763Y85312D01*
X48715Y85367D01*
X48687Y85402D01*
X48673Y85409D01*
X48569Y85478D01*
X48458Y85534D01*
X48347Y85568D01*
X48243Y85596D01*
X48153Y85610D01*
X48077Y85624D01*
X47938D01*
X47862Y85610D01*
X47709Y85575D01*
X47564Y85527D01*
X47432Y85471D01*
X47314Y85416D01*
X47266Y85388D01*
X47224Y85367D01*
X47196Y85346D01*
X47168Y85332D01*
X47155Y85325D01*
X47148Y85318D01*
X46572Y86920D01*
X46683Y86983D01*
X46794Y87038D01*
X46905Y87087D01*
X47009Y87128D01*
X47217Y87191D01*
X47404Y87232D01*
X47487Y87246D01*
X47564Y87253D01*
X47626Y87260D01*
X47682Y87267D01*
X47730Y87274D01*
X47793D01*
X47952Y87267D01*
D02*
G37*
G36*
X87519D02*
X87706Y87253D01*
X87879Y87232D01*
X88053Y87205D01*
X88212Y87170D01*
X88364Y87128D01*
X88510Y87087D01*
X88642Y87045D01*
X88760Y87003D01*
X88864Y86962D01*
X88961Y86920D01*
X89037Y86886D01*
X89100Y86858D01*
X89148Y86837D01*
X89176Y86823D01*
X89183Y86816D01*
X89335Y86726D01*
X89474Y86629D01*
X89606Y86525D01*
X89731Y86421D01*
X89841Y86310D01*
X89945Y86206D01*
X90043Y86095D01*
X90133Y85991D01*
X90209Y85894D01*
X90271Y85804D01*
X90327Y85721D01*
X90375Y85644D01*
X90410Y85589D01*
X90438Y85540D01*
X90452Y85513D01*
X90459Y85506D01*
X90535Y85346D01*
X90604Y85187D01*
X90667Y85027D01*
X90722Y84868D01*
X90764Y84715D01*
X90798Y84570D01*
X90826Y84431D01*
X90854Y84299D01*
X90875Y84181D01*
X90889Y84070D01*
X90896Y83973D01*
X90903Y83897D01*
X90909Y83828D01*
Y83779D01*
Y83751D01*
Y83737D01*
X90903Y83516D01*
X90889Y83308D01*
X90868Y83106D01*
X90840Y82912D01*
X90805Y82732D01*
X90764Y82566D01*
X90729Y82413D01*
X90681Y82268D01*
X90639Y82143D01*
X90604Y82025D01*
X90563Y81928D01*
X90528Y81851D01*
X90500Y81782D01*
X90479Y81741D01*
X90466Y81706D01*
X90459Y81699D01*
X90368Y81546D01*
X90271Y81408D01*
X90167Y81276D01*
X90063Y81151D01*
X89952Y81040D01*
X89841Y80936D01*
X89738Y80839D01*
X89634Y80756D01*
X89529Y80680D01*
X89439Y80617D01*
X89356Y80562D01*
X89287Y80520D01*
X89224Y80485D01*
X89176Y80458D01*
X89148Y80444D01*
X89141Y80437D01*
X88975Y80360D01*
X88815Y80298D01*
X88649Y80236D01*
X88489Y80187D01*
X88337Y80146D01*
X88184Y80111D01*
X88039Y80083D01*
X87907Y80062D01*
X87782Y80042D01*
X87664Y80028D01*
X87567Y80021D01*
X87477Y80014D01*
X87415Y80007D01*
X87317D01*
X87033Y80021D01*
X86763Y80049D01*
X86506Y80104D01*
X86264Y80166D01*
X86035Y80250D01*
X85827Y80333D01*
X85632Y80430D01*
X85452Y80527D01*
X85293Y80617D01*
X85154Y80714D01*
X85036Y80797D01*
X84932Y80881D01*
X84856Y80943D01*
X84800Y80998D01*
X84766Y81026D01*
X84752Y81040D01*
X84572Y81241D01*
X84412Y81449D01*
X84280Y81671D01*
X84162Y81886D01*
X84065Y82108D01*
X83982Y82323D01*
X83913Y82538D01*
X83857Y82739D01*
X83816Y82926D01*
X83788Y83100D01*
X83760Y83259D01*
X83746Y83391D01*
X83739Y83502D01*
Y83550D01*
X83733Y83585D01*
Y83613D01*
Y83633D01*
Y83647D01*
Y83654D01*
X83746Y83939D01*
X83774Y84216D01*
X83823Y84473D01*
X83892Y84722D01*
X83968Y84951D01*
X84052Y85166D01*
X84142Y85360D01*
X84239Y85540D01*
X84336Y85700D01*
X84426Y85839D01*
X84509Y85963D01*
X84585Y86060D01*
X84648Y86144D01*
X84703Y86199D01*
X84731Y86234D01*
X84745Y86248D01*
X84939Y86428D01*
X85147Y86587D01*
X85355Y86726D01*
X85570Y86844D01*
X85792Y86941D01*
X86007Y87024D01*
X86215Y87094D01*
X86416Y87149D01*
X86603Y87191D01*
X86777Y87219D01*
X86936Y87246D01*
X87068Y87260D01*
X87179Y87267D01*
X87220D01*
X87262Y87274D01*
X87331D01*
X87519Y87267D01*
D02*
G37*
G36*
X157949Y74625D02*
X158178Y74604D01*
X158393Y74569D01*
X158601Y74528D01*
X158788Y74479D01*
X158969Y74423D01*
X159135Y74361D01*
X159281Y74299D01*
X159412Y74236D01*
X159537Y74174D01*
X159634Y74118D01*
X159724Y74070D01*
X159787Y74028D01*
X159835Y73994D01*
X159870Y73973D01*
X159877Y73966D01*
X160030Y73834D01*
X160168Y73682D01*
X160293Y73522D01*
X160397Y73349D01*
X160494Y73169D01*
X160577Y72988D01*
X160647Y72808D01*
X160709Y72628D01*
X160758Y72461D01*
X160799Y72302D01*
X160834Y72163D01*
X160855Y72038D01*
X160875Y71934D01*
X160882Y71893D01*
X160889Y71858D01*
Y71830D01*
X160896Y71809D01*
Y71796D01*
Y71789D01*
X159066Y71608D01*
X159052Y71754D01*
X159038Y71886D01*
X159010Y72010D01*
X158982Y72128D01*
X158955Y72232D01*
X158920Y72329D01*
X158885Y72413D01*
X158851Y72489D01*
X158816Y72551D01*
X158788Y72607D01*
X158760Y72655D01*
X158733Y72690D01*
X158712Y72725D01*
X158691Y72745D01*
X158684Y72752D01*
X158677Y72759D01*
X158608Y72822D01*
X158539Y72877D01*
X158462Y72919D01*
X158393Y72960D01*
X158233Y73023D01*
X158088Y73064D01*
X157956Y73085D01*
X157901Y73099D01*
X157852D01*
X157811Y73106D01*
X157755D01*
X157651Y73099D01*
X157547Y73092D01*
X157367Y73057D01*
X157207Y73002D01*
X157076Y72940D01*
X157027Y72912D01*
X156979Y72877D01*
X156937Y72849D01*
X156902Y72829D01*
X156874Y72801D01*
X156854Y72787D01*
X156847Y72780D01*
X156840Y72773D01*
X156784Y72711D01*
X156729Y72635D01*
X156646Y72489D01*
X156590Y72329D01*
X156549Y72177D01*
X156521Y72038D01*
X156514Y71983D01*
Y71934D01*
X156507Y71886D01*
Y71858D01*
Y71837D01*
Y71830D01*
X156514Y71726D01*
X156521Y71622D01*
X156569Y71414D01*
X156625Y71227D01*
X156694Y71054D01*
X156736Y70977D01*
X156770Y70908D01*
X156798Y70852D01*
X156826Y70797D01*
X156854Y70755D01*
X156874Y70728D01*
X156881Y70707D01*
X156888Y70700D01*
X156951Y70617D01*
X157034Y70513D01*
X157131Y70402D01*
X157249Y70284D01*
X157367Y70152D01*
X157499Y70027D01*
X157755Y69764D01*
X157887Y69639D01*
X158005Y69521D01*
X158116Y69417D01*
X158213Y69320D01*
X158296Y69244D01*
X158358Y69181D01*
X158400Y69147D01*
X158407Y69140D01*
X158414Y69133D01*
X158691Y68869D01*
X158948Y68620D01*
X159177Y68391D01*
X159392Y68169D01*
X159579Y67961D01*
X159752Y67774D01*
X159898Y67600D01*
X160030Y67441D01*
X160140Y67302D01*
X160238Y67177D01*
X160321Y67073D01*
X160383Y66990D01*
X160425Y66921D01*
X160459Y66872D01*
X160480Y66838D01*
X160487Y66831D01*
X160577Y66664D01*
X160660Y66505D01*
X160737Y66338D01*
X160806Y66179D01*
X160862Y66019D01*
X160910Y65874D01*
X160959Y65728D01*
X160993Y65589D01*
X161028Y65465D01*
X161049Y65354D01*
X161070Y65250D01*
X161084Y65166D01*
X161097Y65097D01*
X161104Y65042D01*
X161111Y65014D01*
Y65000D01*
X154662D01*
Y66706D01*
X158324D01*
X158268Y66796D01*
X158206Y66886D01*
X158143Y66976D01*
X158081Y67052D01*
X158032Y67115D01*
X157984Y67170D01*
X157956Y67198D01*
X157949Y67212D01*
X157901Y67267D01*
X157831Y67337D01*
X157762Y67406D01*
X157679Y67489D01*
X157492Y67663D01*
X157304Y67843D01*
X157214Y67926D01*
X157131Y68009D01*
X157048Y68079D01*
X156979Y68141D01*
X156923Y68197D01*
X156874Y68238D01*
X156847Y68266D01*
X156840Y68273D01*
X156680Y68418D01*
X156535Y68557D01*
X156403Y68682D01*
X156285Y68800D01*
X156174Y68911D01*
X156077Y69015D01*
X155987Y69105D01*
X155911Y69188D01*
X155841Y69258D01*
X155786Y69320D01*
X155737Y69376D01*
X155696Y69424D01*
X155668Y69459D01*
X155647Y69479D01*
X155640Y69493D01*
X155633Y69500D01*
X155460Y69736D01*
X155307Y69958D01*
X155183Y70166D01*
X155127Y70263D01*
X155078Y70353D01*
X155037Y70430D01*
X155002Y70506D01*
X154967Y70568D01*
X154940Y70617D01*
X154926Y70665D01*
X154912Y70693D01*
X154898Y70714D01*
Y70721D01*
X154822Y70943D01*
X154760Y71164D01*
X154718Y71372D01*
X154690Y71560D01*
X154683Y71643D01*
X154676Y71719D01*
X154669Y71789D01*
X154662Y71844D01*
Y71893D01*
Y71927D01*
Y71948D01*
Y71955D01*
X154669Y72163D01*
X154697Y72364D01*
X154739Y72558D01*
X154787Y72738D01*
X154850Y72905D01*
X154919Y73064D01*
X154995Y73203D01*
X155071Y73335D01*
X155148Y73453D01*
X155224Y73564D01*
X155293Y73647D01*
X155356Y73723D01*
X155404Y73786D01*
X155446Y73827D01*
X155474Y73855D01*
X155481Y73862D01*
X155640Y74001D01*
X155807Y74118D01*
X155987Y74215D01*
X156174Y74306D01*
X156354Y74382D01*
X156542Y74444D01*
X156729Y74493D01*
X156902Y74535D01*
X157069Y74569D01*
X157221Y74590D01*
X157360Y74611D01*
X157478Y74618D01*
X157575Y74625D01*
X157651Y74632D01*
X157713D01*
X157949Y74625D01*
D02*
G37*
G36*
X168905Y74472D02*
X168982Y74313D01*
X169065Y74160D01*
X169155Y74021D01*
X169252Y73883D01*
X169349Y73758D01*
X169446Y73640D01*
X169536Y73529D01*
X169633Y73432D01*
X169717Y73349D01*
X169793Y73273D01*
X169862Y73210D01*
X169918Y73162D01*
X169966Y73120D01*
X169994Y73099D01*
X170001Y73092D01*
X170160Y72974D01*
X170313Y72863D01*
X170459Y72766D01*
X170604Y72676D01*
X170736Y72593D01*
X170868Y72524D01*
X170986Y72461D01*
X171096Y72399D01*
X171201Y72350D01*
X171291Y72309D01*
X171367Y72281D01*
X171436Y72253D01*
X171492Y72232D01*
X171526Y72218D01*
X171554Y72205D01*
X171561D01*
Y70533D01*
X171311Y70624D01*
X171069Y70721D01*
X170833Y70832D01*
X170611Y70943D01*
X170403Y71054D01*
X170209Y71171D01*
X170029Y71289D01*
X169862Y71400D01*
X169710Y71504D01*
X169578Y71608D01*
X169460Y71698D01*
X169363Y71775D01*
X169287Y71837D01*
X169231Y71886D01*
X169196Y71913D01*
X169183Y71927D01*
Y65000D01*
X167345D01*
Y74632D01*
X168843D01*
X168905Y74472D01*
D02*
G37*
G36*
X177199Y65000D02*
X175541D01*
X172782Y71955D01*
X174674D01*
X175992Y68405D01*
X176034Y68294D01*
X176068Y68190D01*
X176103Y68086D01*
X176131Y67996D01*
X176158Y67926D01*
X176179Y67864D01*
X176186Y67829D01*
X176193Y67815D01*
X176200Y67787D01*
X176214Y67746D01*
X176235Y67663D01*
X176269Y67566D01*
X176297Y67462D01*
X176332Y67372D01*
X176353Y67295D01*
X176367Y67260D01*
X176373Y67240D01*
X176380Y67226D01*
Y67219D01*
X176762Y68405D01*
X178072Y71955D01*
X180000D01*
X177199Y65000D01*
D02*
G37*
G36*
X164204D02*
X162366D01*
Y66838D01*
X164204D01*
Y65000D01*
D02*
G37*
%LPC*%
G36*
X112364Y85866D02*
X112308D01*
X112204Y85859D01*
X112107Y85845D01*
X112010Y85825D01*
X111920Y85804D01*
X111761Y85735D01*
X111622Y85658D01*
X111559Y85617D01*
X111504Y85575D01*
X111462Y85540D01*
X111421Y85513D01*
X111393Y85485D01*
X111372Y85464D01*
X111358Y85450D01*
X111351Y85443D01*
X111282Y85360D01*
X111220Y85270D01*
X111164Y85180D01*
X111123Y85076D01*
X111046Y84875D01*
X110998Y84681D01*
X110977Y84590D01*
X110963Y84507D01*
X110949Y84431D01*
X110942Y84362D01*
Y84306D01*
X110935Y84264D01*
Y84237D01*
Y84230D01*
X113695D01*
Y84368D01*
X113681Y84500D01*
X113660Y84618D01*
X113640Y84736D01*
X113605Y84840D01*
X113577Y84937D01*
X113543Y85027D01*
X113501Y85111D01*
X113466Y85180D01*
X113432Y85242D01*
X113397Y85298D01*
X113369Y85339D01*
X113342Y85374D01*
X113321Y85402D01*
X113314Y85416D01*
X113307Y85422D01*
X113231Y85499D01*
X113147Y85568D01*
X113071Y85631D01*
X112981Y85679D01*
X112898Y85721D01*
X112815Y85755D01*
X112662Y85811D01*
X112586Y85832D01*
X112523Y85845D01*
X112461Y85852D01*
X112405Y85859D01*
X112364Y85866D01*
D02*
G37*
G36*
X67666D02*
X67611D01*
X67506Y85859D01*
X67409Y85845D01*
X67312Y85825D01*
X67222Y85804D01*
X67063Y85735D01*
X66924Y85658D01*
X66862Y85617D01*
X66806Y85575D01*
X66764Y85540D01*
X66723Y85513D01*
X66695Y85485D01*
X66674Y85464D01*
X66660Y85450D01*
X66654Y85443D01*
X66584Y85360D01*
X66522Y85270D01*
X66466Y85180D01*
X66425Y85076D01*
X66349Y84875D01*
X66300Y84681D01*
X66279Y84590D01*
X66265Y84507D01*
X66251Y84431D01*
X66244Y84362D01*
Y84306D01*
X66238Y84264D01*
Y84237D01*
Y84230D01*
X68997D01*
Y84368D01*
X68983Y84500D01*
X68963Y84618D01*
X68942Y84736D01*
X68907Y84840D01*
X68879Y84937D01*
X68845Y85027D01*
X68803Y85111D01*
X68769Y85180D01*
X68734Y85242D01*
X68699Y85298D01*
X68671Y85339D01*
X68644Y85374D01*
X68623Y85402D01*
X68616Y85416D01*
X68609Y85422D01*
X68533Y85499D01*
X68450Y85568D01*
X68373Y85631D01*
X68283Y85679D01*
X68200Y85721D01*
X68117Y85755D01*
X67964Y85811D01*
X67888Y85832D01*
X67825Y85845D01*
X67763Y85852D01*
X67708Y85859D01*
X67666Y85866D01*
D02*
G37*
G36*
X55746D02*
X55691D01*
X55587Y85859D01*
X55490Y85845D01*
X55392Y85825D01*
X55302Y85804D01*
X55143Y85735D01*
X55004Y85658D01*
X54942Y85617D01*
X54886Y85575D01*
X54845Y85540D01*
X54803Y85513D01*
X54775Y85485D01*
X54755Y85464D01*
X54741Y85450D01*
X54734Y85443D01*
X54664Y85360D01*
X54602Y85270D01*
X54546Y85180D01*
X54505Y85076D01*
X54429Y84875D01*
X54380Y84681D01*
X54359Y84590D01*
X54345Y84507D01*
X54331Y84431D01*
X54325Y84362D01*
Y84306D01*
X54318Y84264D01*
Y84237D01*
Y84230D01*
X57077D01*
Y84368D01*
X57064Y84500D01*
X57043Y84618D01*
X57022Y84736D01*
X56987Y84840D01*
X56960Y84937D01*
X56925Y85027D01*
X56883Y85111D01*
X56849Y85180D01*
X56814Y85242D01*
X56779Y85298D01*
X56751Y85339D01*
X56724Y85374D01*
X56703Y85402D01*
X56696Y85416D01*
X56689Y85422D01*
X56613Y85499D01*
X56530Y85568D01*
X56453Y85631D01*
X56363Y85679D01*
X56280Y85721D01*
X56197Y85755D01*
X56044Y85811D01*
X55968Y85832D01*
X55906Y85845D01*
X55843Y85852D01*
X55788Y85859D01*
X55746Y85866D01*
D02*
G37*
G36*
X87394Y85776D02*
X87324D01*
X87193Y85769D01*
X87068Y85755D01*
X86943Y85728D01*
X86832Y85693D01*
X86728Y85644D01*
X86624Y85603D01*
X86534Y85547D01*
X86451Y85499D01*
X86374Y85450D01*
X86312Y85395D01*
X86250Y85353D01*
X86208Y85312D01*
X86166Y85270D01*
X86139Y85242D01*
X86125Y85228D01*
X86118Y85221D01*
X86028Y85111D01*
X85958Y85000D01*
X85889Y84875D01*
X85834Y84743D01*
X85785Y84611D01*
X85743Y84480D01*
X85716Y84355D01*
X85688Y84230D01*
X85667Y84112D01*
X85653Y84001D01*
X85639Y83904D01*
X85632Y83814D01*
X85625Y83744D01*
Y83696D01*
Y83661D01*
Y83647D01*
X85632Y83460D01*
X85646Y83280D01*
X85674Y83113D01*
X85702Y82954D01*
X85737Y82815D01*
X85778Y82683D01*
X85827Y82566D01*
X85868Y82455D01*
X85917Y82365D01*
X85965Y82281D01*
X86007Y82212D01*
X86042Y82156D01*
X86069Y82108D01*
X86097Y82080D01*
X86111Y82059D01*
X86118Y82052D01*
X86208Y81955D01*
X86312Y81872D01*
X86409Y81796D01*
X86513Y81734D01*
X86610Y81685D01*
X86714Y81636D01*
X86811Y81602D01*
X86901Y81574D01*
X86992Y81553D01*
X87068Y81532D01*
X87144Y81519D01*
X87206Y81512D01*
X87255D01*
X87290Y81505D01*
X87324D01*
X87456Y81512D01*
X87581Y81525D01*
X87706Y81553D01*
X87817Y81588D01*
X87928Y81629D01*
X88025Y81678D01*
X88115Y81727D01*
X88198Y81782D01*
X88274Y81831D01*
X88344Y81879D01*
X88399Y81928D01*
X88448Y81969D01*
X88489Y82004D01*
X88517Y82032D01*
X88531Y82046D01*
X88538Y82052D01*
X88621Y82163D01*
X88697Y82281D01*
X88760Y82406D01*
X88815Y82531D01*
X88864Y82663D01*
X88905Y82794D01*
X88940Y82926D01*
X88961Y83051D01*
X88982Y83169D01*
X88996Y83280D01*
X89009Y83384D01*
X89016Y83467D01*
X89023Y83543D01*
Y83592D01*
Y83627D01*
Y83640D01*
X89016Y83828D01*
X89003Y84008D01*
X88982Y84167D01*
X88947Y84327D01*
X88912Y84466D01*
X88871Y84597D01*
X88822Y84715D01*
X88781Y84819D01*
X88732Y84909D01*
X88690Y84993D01*
X88649Y85062D01*
X88614Y85117D01*
X88580Y85166D01*
X88559Y85194D01*
X88545Y85215D01*
X88538Y85221D01*
X88441Y85318D01*
X88344Y85402D01*
X88240Y85478D01*
X88143Y85540D01*
X88039Y85596D01*
X87935Y85644D01*
X87837Y85679D01*
X87747Y85707D01*
X87657Y85728D01*
X87581Y85748D01*
X87505Y85762D01*
X87442Y85769D01*
X87394Y85776D01*
D02*
G37*
%LPD*%
M02*
