G04*
G04 #@! TF.GenerationSoftware,Altium Limited,Altium Designer,24.3.1 (35)*
G04*
G04 Layer_Color=16711935*
%FSLAX44Y44*%
%MOMM*%
G71*
G04*
G04 #@! TF.SameCoordinates,AD25D3ED-FBA9-419F-A6E4-F2E671057BDA*
G04*
G04*
G04 #@! TF.FilePolarity,Positive*
G04*
G01*
G75*
G36*
X195834Y139231D02*
X199473Y137724D01*
X202749Y135535D01*
X205535Y132749D01*
X207724Y129473D01*
X209231Y125834D01*
X210000Y121970D01*
Y120000D01*
Y20000D01*
Y20000D01*
Y18030D01*
X209231Y14166D01*
X207724Y10526D01*
X205535Y7251D01*
X202749Y4465D01*
X199473Y2276D01*
X195834Y769D01*
X191970Y0D01*
X28030D01*
X24166Y769D01*
X20526Y2276D01*
X17251Y4465D01*
X14465Y7251D01*
X12276Y10526D01*
X10769Y14166D01*
X10000Y18030D01*
Y20000D01*
Y120000D01*
X10000Y121970D01*
X10769Y125834D01*
X12276Y129473D01*
X14465Y132749D01*
X17251Y135535D01*
X20526Y137724D01*
X24166Y139231D01*
X28030Y140000D01*
X191970D01*
X195834Y139231D01*
D02*
G37*
G36*
X402917Y99616D02*
X404737Y98862D01*
X406375Y97767D01*
X407767Y96375D01*
X408862Y94737D01*
X409616Y92917D01*
X410000Y90985D01*
Y90000D01*
Y50000D01*
Y49015D01*
X409616Y47083D01*
X408862Y45263D01*
X407767Y43625D01*
X406375Y42232D01*
X404737Y41138D01*
X402917Y40384D01*
X400985Y40000D01*
X369015D01*
X367083Y40384D01*
X365263Y41138D01*
X363625Y42232D01*
X362233Y43625D01*
X361138Y45263D01*
X360384Y47083D01*
X360000Y49015D01*
Y50000D01*
Y90000D01*
Y90985D01*
X360384Y92917D01*
X361138Y94737D01*
X362233Y96375D01*
X363625Y97767D01*
X365263Y98862D01*
X367083Y99616D01*
X369015Y100000D01*
X400985D01*
X402917Y99616D01*
D02*
G37*
M02*
