G04*
G04 #@! TF.GenerationSoftware,Altium Limited,Altium Designer,24.3.1 (35)*
G04*
G04 Layer_Physical_Order=2*
G04 Layer_Color=36540*
%FSLAX44Y44*%
%MOMM*%
G71*
G04*
G04 #@! TF.SameCoordinates,AD25D3ED-FBA9-419F-A6E4-F2E671057BDA*
G04*
G04*
G04 #@! TF.FilePolarity,Positive*
G04*
G01*
G75*
%ADD37C,0.1500*%
%ADD39C,0.9906*%
%ADD40O,2.2000X1.0000*%
%ADD41O,1.8000X1.0000*%
%ADD42C,0.5000*%
G36*
X190000Y138211D02*
X193553Y137861D01*
X196969Y136825D01*
X200117Y135142D01*
X202877Y132877D01*
X205142Y130117D01*
X206824Y126969D01*
X207861Y123553D01*
X208211Y120000D01*
X208216D01*
X208216Y120000D01*
Y90000D01*
X208149D01*
X208552Y86933D01*
X209736Y84074D01*
X211620Y81620D01*
X214074Y79736D01*
X216933Y78552D01*
X220000Y78149D01*
Y78216D01*
X350000D01*
Y78149D01*
X353067Y78552D01*
X355926Y79736D01*
X358380Y81620D01*
X360264Y84074D01*
X361447Y86933D01*
X361851Y90000D01*
X361851D01*
X361813Y90044D01*
X362086Y92121D01*
X362905Y94096D01*
X364207Y95793D01*
X365904Y97095D01*
X367879Y97914D01*
X370000Y98193D01*
Y98216D01*
X370000Y98216D01*
X400000D01*
X400000Y98216D01*
Y98193D01*
X402121Y97914D01*
X404096Y97095D01*
X405793Y95793D01*
X407095Y94096D01*
X407914Y92121D01*
X408193Y90000D01*
X408216D01*
X408216Y90000D01*
Y50597D01*
X407968Y50000D01*
X408139Y49588D01*
X407914Y47880D01*
X407095Y45903D01*
X405793Y44207D01*
X404096Y42905D01*
X402121Y42086D01*
X400000Y41807D01*
Y41784D01*
X370000D01*
Y41807D01*
X367879Y42086D01*
X365904Y42905D01*
X364207Y44207D01*
X362905Y45903D01*
X362086Y47880D01*
X361813Y49956D01*
X361851Y50000D01*
X361851D01*
X361447Y53067D01*
X360264Y55926D01*
X358380Y58380D01*
X355926Y60264D01*
X353067Y61448D01*
X350000Y61851D01*
Y61784D01*
X220000D01*
Y61851D01*
X216933Y61448D01*
X214074Y60264D01*
X211620Y58380D01*
X209736Y55926D01*
X208552Y53067D01*
X208149Y50000D01*
X208216D01*
X208216Y20000D01*
X208216Y20000D01*
X208211D01*
X207861Y16447D01*
X206824Y13031D01*
X205142Y9883D01*
X202877Y7123D01*
X200117Y4858D01*
X196969Y3176D01*
X193553Y2139D01*
X190000Y1789D01*
Y1784D01*
X30000D01*
Y1789D01*
X26447Y2139D01*
X23031Y3176D01*
X19883Y4858D01*
X17123Y7123D01*
X14858Y9883D01*
X13175Y13031D01*
X12139Y16447D01*
X11789Y20000D01*
X11784D01*
Y25811D01*
X13054Y25936D01*
X13348Y24459D01*
X14674Y22474D01*
X16659Y21148D01*
X19000Y20682D01*
X31000D01*
X33341Y21148D01*
X35326Y22474D01*
X36652Y24459D01*
X37118Y26800D01*
X36652Y29141D01*
X35326Y31126D01*
X33341Y32452D01*
X31000Y32918D01*
X19000D01*
X16659Y32452D01*
X14674Y31126D01*
X13348Y29141D01*
X13054Y27664D01*
X11784Y27789D01*
X11784Y112211D01*
X13054Y112337D01*
X13348Y110859D01*
X14674Y108874D01*
X16659Y107548D01*
X19000Y107083D01*
X31000D01*
X33341Y107548D01*
X35326Y108874D01*
X36652Y110859D01*
X37118Y113200D01*
X36652Y115541D01*
X35326Y117526D01*
X33341Y118852D01*
X31000Y119318D01*
X19000D01*
X16659Y118852D01*
X14674Y117526D01*
X13348Y115541D01*
X13054Y114064D01*
X11784Y114189D01*
Y119945D01*
X11789D01*
X12140Y123508D01*
X13179Y126935D01*
X14867Y130093D01*
X17139Y132861D01*
X19907Y135133D01*
X23065Y136821D01*
X26492Y137860D01*
X30055Y138211D01*
Y138216D01*
X190000D01*
Y138211D01*
D02*
G37*
%LPC*%
G36*
X150696Y131000D02*
X149304D01*
X148017Y130467D01*
X147033Y129483D01*
X146500Y128196D01*
Y126804D01*
X147033Y125517D01*
X148017Y124533D01*
X149304Y124000D01*
X150696D01*
X151983Y124533D01*
X152967Y125517D01*
X153500Y126804D01*
Y128196D01*
X152967Y129483D01*
X151983Y130467D01*
X150696Y131000D01*
D02*
G37*
G36*
X69000Y119318D02*
X61000D01*
X58659Y118852D01*
X56674Y117526D01*
X55348Y115541D01*
X54882Y113200D01*
X55348Y110859D01*
X56674Y108874D01*
X58659Y107548D01*
X61000Y107083D01*
X69000D01*
X71341Y107548D01*
X73326Y108874D01*
X74652Y110859D01*
X75118Y113200D01*
X74652Y115541D01*
X73326Y117526D01*
X71341Y118852D01*
X69000Y119318D01*
D02*
G37*
G36*
X190696Y108500D02*
X189304D01*
X188017Y107967D01*
X187033Y106983D01*
X186500Y105696D01*
Y104304D01*
X187033Y103017D01*
X188017Y102033D01*
X189304Y101500D01*
X190696D01*
X191983Y102033D01*
X192967Y103017D01*
X193500Y104304D01*
Y105696D01*
X192967Y106983D01*
X191983Y107967D01*
X190696Y108500D01*
D02*
G37*
G36*
X378196Y93500D02*
X376804D01*
X375517Y92967D01*
X374533Y91983D01*
X374000Y90696D01*
Y89304D01*
X374533Y88017D01*
X375517Y87033D01*
X376804Y86500D01*
X378196D01*
X379483Y87033D01*
X380467Y88017D01*
X381000Y89304D01*
Y90696D01*
X380467Y91983D01*
X379483Y92967D01*
X378196Y93500D01*
D02*
G37*
G36*
X200696Y86000D02*
X199304D01*
X198017Y85467D01*
X197033Y84483D01*
X196500Y83196D01*
Y81804D01*
X197033Y80517D01*
X198017Y79533D01*
X199304Y79000D01*
X200696D01*
X201983Y79533D01*
X202967Y80517D01*
X203500Y81804D01*
Y83196D01*
X202967Y84483D01*
X201983Y85467D01*
X200696Y86000D01*
D02*
G37*
G36*
X178196Y88500D02*
X176804D01*
X175517Y87967D01*
X174533Y86983D01*
X174000Y85696D01*
Y84304D01*
X174533Y83017D01*
X175517Y82033D01*
X175716Y81951D01*
Y67500D01*
X175851Y66817D01*
X176238Y66238D01*
X186238Y56238D01*
X186817Y55852D01*
X187500Y55716D01*
X202023D01*
X202706Y55852D01*
X203285Y56238D01*
X213762Y66716D01*
X363511D01*
X369082Y61144D01*
X369000Y60946D01*
Y59554D01*
X369533Y58267D01*
X370517Y57283D01*
X371804Y56750D01*
X373196D01*
X374483Y57283D01*
X375467Y58267D01*
X376000Y59554D01*
Y60946D01*
X375467Y62233D01*
X374483Y63217D01*
X373196Y63750D01*
X371804D01*
X371605Y63668D01*
X366142Y69132D01*
X365647Y70000D01*
X366142Y70868D01*
X371605Y76332D01*
X371804Y76250D01*
X373196D01*
X374483Y76783D01*
X375467Y77767D01*
X376000Y79054D01*
Y80446D01*
X375467Y81733D01*
X374483Y82717D01*
X373196Y83250D01*
X371804D01*
X370517Y82717D01*
X369533Y81733D01*
X369000Y80446D01*
Y79054D01*
X369082Y78856D01*
X363511Y73284D01*
X211523D01*
X210840Y73148D01*
X210262Y72762D01*
X201784Y64284D01*
X193049D01*
X192967Y64483D01*
X191983Y65467D01*
X190696Y66000D01*
X189304D01*
X188017Y65467D01*
X187033Y64483D01*
X186500Y63196D01*
Y62819D01*
X185230Y62293D01*
X179284Y68239D01*
Y81951D01*
X179483Y82033D01*
X180467Y83017D01*
X181000Y84304D01*
Y85696D01*
X180467Y86983D01*
X179483Y87967D01*
X178196Y88500D01*
D02*
G37*
G36*
X120696Y75500D02*
X119304D01*
X118017Y74967D01*
X117033Y73983D01*
X116500Y72696D01*
Y71304D01*
X117033Y70017D01*
X118017Y69033D01*
X119304Y68500D01*
X120696D01*
X121983Y69033D01*
X122967Y70017D01*
X123500Y71304D01*
Y72696D01*
X122967Y73983D01*
X121983Y74967D01*
X120696Y75500D01*
D02*
G37*
G36*
X200696Y73500D02*
X199304D01*
X198017Y72967D01*
X197033Y71983D01*
X196500Y70696D01*
Y69304D01*
X197033Y68017D01*
X198017Y67033D01*
X199304Y66500D01*
X200696D01*
X201983Y67033D01*
X202967Y68017D01*
X203500Y69304D01*
Y70696D01*
X202967Y71983D01*
X201983Y72967D01*
X200696Y73500D01*
D02*
G37*
G36*
X140696Y73500D02*
X139304D01*
X138017Y72967D01*
X137033Y71983D01*
X136500Y70696D01*
Y69304D01*
X137033Y68017D01*
X138017Y67033D01*
X139304Y66500D01*
X140696D01*
X141983Y67033D01*
X142967Y68017D01*
X143500Y69304D01*
Y70696D01*
X142967Y71983D01*
X141983Y72967D01*
X140696Y73500D01*
D02*
G37*
G36*
X168196Y53500D02*
X166804D01*
X165517Y52967D01*
X164533Y51983D01*
X164000Y50696D01*
Y49304D01*
X164533Y48017D01*
X165517Y47033D01*
X166804Y46500D01*
X168196D01*
X169483Y47033D01*
X170467Y48017D01*
X171000Y49304D01*
Y50696D01*
X170467Y51983D01*
X169483Y52967D01*
X168196Y53500D01*
D02*
G37*
G36*
X101196Y48500D02*
X99804D01*
X98517Y47967D01*
X97533Y46983D01*
X97000Y45696D01*
Y44304D01*
X97533Y43017D01*
X98517Y42033D01*
X99804Y41500D01*
X101196D01*
X102483Y42033D01*
X103467Y43017D01*
X104000Y44304D01*
Y45696D01*
X103467Y46983D01*
X102483Y47967D01*
X101196Y48500D01*
D02*
G37*
G36*
X145696Y36000D02*
X144304D01*
X143017Y35467D01*
X142033Y34483D01*
X141500Y33196D01*
Y31804D01*
X142033Y30517D01*
X143017Y29533D01*
X144304Y29000D01*
X145696D01*
X146983Y29533D01*
X147967Y30517D01*
X148500Y31804D01*
Y33196D01*
X147967Y34483D01*
X146983Y35467D01*
X145696Y36000D01*
D02*
G37*
G36*
X189084Y37463D02*
X186716D01*
X184528Y36557D01*
X182853Y34882D01*
X181947Y32694D01*
Y30326D01*
X182853Y28138D01*
X184528Y26463D01*
X186716Y25557D01*
X189084D01*
X191272Y26463D01*
X192947Y28138D01*
X193853Y30326D01*
Y32694D01*
X192947Y34882D01*
X191272Y36557D01*
X189084Y37463D01*
D02*
G37*
G36*
X69000Y32918D02*
X61000D01*
X58659Y32452D01*
X56674Y31126D01*
X55348Y29141D01*
X54882Y26800D01*
X55348Y24459D01*
X56674Y22474D01*
X58659Y21148D01*
X61000Y20682D01*
X69000D01*
X71341Y21148D01*
X73326Y22474D01*
X74652Y24459D01*
X75118Y26800D01*
X74652Y29141D01*
X73326Y31126D01*
X71341Y32452D01*
X69000Y32918D01*
D02*
G37*
G36*
X138284Y27303D02*
X135916D01*
X133728Y26397D01*
X132053Y24722D01*
X131147Y22534D01*
Y20166D01*
X132053Y17978D01*
X133728Y16303D01*
X135916Y15397D01*
X138284D01*
X140472Y16303D01*
X142147Y17978D01*
X143053Y20166D01*
Y22534D01*
X142147Y24722D01*
X140472Y26397D01*
X138284Y27303D01*
D02*
G37*
G36*
X189084Y17143D02*
X186716D01*
X184528Y16237D01*
X182853Y14562D01*
X181947Y12374D01*
Y10006D01*
X182853Y7818D01*
X184528Y6143D01*
X186716Y5237D01*
X189084D01*
X191272Y6143D01*
X192947Y7818D01*
X193853Y10006D01*
Y12374D01*
X192947Y14562D01*
X191272Y16237D01*
X189084Y17143D01*
D02*
G37*
%LPD*%
D37*
X202023Y57500D02*
X210000Y65477D01*
X210000Y65477D02*
X213023Y68500D01*
X211523Y71500D02*
X360000D01*
X210000Y65477D02*
X210000Y65477D01*
X360000Y71500D02*
X364250D01*
X210000Y69977D02*
X210000Y69977D01*
X360000Y68500D02*
X364250D01*
X202523Y62500D02*
X210000Y69977D01*
X210000Y69977D02*
X211523Y71500D01*
X213023Y68500D02*
X360000D01*
X190000Y62500D02*
X202523D01*
X187500Y57500D02*
X202023D01*
X364250Y68500D02*
X372500Y60250D01*
X364250Y71500D02*
X372500Y79750D01*
X177500Y67500D02*
X187500Y57500D01*
X177500Y67500D02*
Y85000D01*
D39*
X187900Y11190D02*
D03*
Y31510D02*
D03*
X137100Y21350D02*
D03*
D40*
X25000Y26800D02*
D03*
Y113200D02*
D03*
D41*
X65000Y26800D02*
D03*
Y113200D02*
D03*
D42*
X200000Y70000D02*
D03*
X107500Y127500D02*
D03*
X190000Y62500D02*
D03*
X177500Y85000D02*
D03*
X397500Y90000D02*
D03*
X377500D02*
D03*
X385000Y52500D02*
D03*
X372500Y60250D02*
D03*
Y79750D02*
D03*
X120000Y72000D02*
D03*
X119500Y45000D02*
D03*
X130000Y127500D02*
D03*
X160000Y91500D02*
D03*
X140000Y70000D02*
D03*
X133500Y65000D02*
D03*
X167500Y50000D02*
D03*
X197500Y105000D02*
D03*
X190000D02*
D03*
X200000Y82500D02*
D03*
X150000Y127500D02*
D03*
X100000Y102500D02*
D03*
Y90000D02*
D03*
Y52500D02*
D03*
X157500Y10000D02*
D03*
X145000Y32500D02*
D03*
X85000Y25000D02*
D03*
X100500Y45000D02*
D03*
X100000Y77500D02*
D03*
X100000Y65000D02*
D03*
X60000Y38000D02*
D03*
Y102000D02*
D03*
M02*
